<?xml version="1.0" encoding="utf-8"?>
<!-- Generator: Adobe Illustrator 15.1.0, SVG Export Plug-In . SVG Version: 6.00 Build 0)  -->
<!DOCTYPE svg PUBLIC "-//W3C//DTD SVG 1.1//EN" "http://www.w3.org/Graphics/SVG/1.1/DTD/svg11.dtd">
<svg version="1.1" id="Layer_1" xmlns="http://www.w3.org/2000/svg" xmlns:xlink="http://www.w3.org/1999/xlink" x="0px" y="0px"
	 width="109.002px" height="109.002px" viewBox="0 0 109.002 109.002" enable-background="new 0 0 109.002 109.002"
	 xml:space="preserve">
<g>
	<path fill="#D0525D" d="M101,82.833c0,2.101-0.742,3.869-2.192,5.33l-10.65,10.65c-1.461,1.45-3.241,2.181-5.319,2.181
		c-2.089,0-3.869-0.73-5.33-2.181L54.495,75.801L31.482,98.813c-1.461,1.45-3.23,2.181-5.319,2.181s-3.858-0.73-5.32-2.181
		l-10.65-10.65c-1.461-1.461-2.191-3.229-2.191-5.33c0-2.077,0.73-3.858,2.191-5.318l23.013-23.014L10.193,31.488
		c-1.461-1.461-2.191-3.23-2.191-5.319s0.73-3.858,2.191-5.319l10.65-10.65c1.461-1.461,3.231-2.192,5.32-2.192
		s3.858,0.73,5.319,2.192l23.013,23.012L77.508,10.2c1.461-1.461,3.241-2.192,5.33-2.192c2.078,0,3.858,0.73,5.319,2.192
		l10.65,10.65c1.45,1.461,2.192,3.23,2.192,5.319s-0.742,3.858-2.192,5.319L75.796,54.501l23.012,23.014
		C100.258,78.975,101,80.756,101,82.833z"/>
</g>
</svg>
