<?xml version="1.0" encoding="utf-8"?>
<!-- Generator: Adobe Illustrator 15.1.0, SVG Export Plug-In . SVG Version: 6.00 Build 0)  -->
<!DOCTYPE svg PUBLIC "-//W3C//DTD SVG 1.1//EN" "http://www.w3.org/Graphics/SVG/1.1/DTD/svg11.dtd">
<svg version="1.1" id="Layer_1" xmlns="http://www.w3.org/2000/svg" xmlns:xlink="http://www.w3.org/1999/xlink" x="0px" y="0px"
	 width="49.625px" height="49.625px" viewBox="0 0 49.625 49.625" enable-background="new 0 0 49.625 49.625" xml:space="preserve">
<g>
	<path fill="#F1F6F9" d="M42.163,22.446v4.732c0,0.657-0.23,1.216-0.69,1.676c-0.46,0.461-1.019,0.689-1.676,0.689H29.544v10.253
		c0,0.657-0.23,1.217-0.689,1.676c-0.461,0.461-1.02,0.69-1.676,0.69h-4.732c-0.657,0-1.216-0.229-1.676-0.69
		c-0.46-0.459-0.69-1.019-0.69-1.676V29.544H9.828c-0.657,0-1.216-0.229-1.676-0.689c-0.46-0.46-0.69-1.019-0.69-1.676v-4.732
		c0-0.657,0.23-1.216,0.69-1.676s1.019-0.69,1.676-0.69h10.253V9.828c0-0.657,0.229-1.216,0.69-1.676
		c0.46-0.46,1.019-0.69,1.676-0.69h4.732c0.656,0,1.215,0.23,1.676,0.69c0.459,0.46,0.689,1.019,0.689,1.676V20.08h10.253
		c0.657,0,1.216,0.23,1.676,0.69S42.163,21.789,42.163,22.446z"/>
</g>
</svg>
