<?xml version="1.0" encoding="utf-8"?>
<!-- Generator: Adobe Illustrator 15.1.0, SVG Export Plug-In . SVG Version: 6.00 Build 0)  -->
<!DOCTYPE svg PUBLIC "-//W3C//DTD SVG 1.1//EN" "http://www.w3.org/Graphics/SVG/1.1/DTD/svg11.dtd">
<svg version="1.1" id="Layer_3" xmlns="http://www.w3.org/2000/svg" xmlns:xlink="http://www.w3.org/1999/xlink" x="0px" y="0px"
	 width="600px" height="600px" viewBox="0 0 600 600" enable-background="new 0 0 600 600" xml:space="preserve">
<g>
	<path fill="#F1F6F9" d="M289.65,414.627L119.229,244.134c-2.912-2.875-4.367-6.355-4.367-10.332c0-4.012,1.455-7.456,4.367-10.296
		l38.132-38.132c2.911-2.912,6.355-4.368,10.332-4.368s7.42,1.456,10.332,4.368l121.958,121.958l121.958-121.958
		c2.912-2.912,6.355-4.368,10.332-4.368c4.012,0,7.455,1.456,10.367,4.368l38.131,38.132c2.912,2.84,4.369,6.284,4.369,10.296
		c0,3.977-1.457,7.456-4.369,10.332L310.314,414.627c-2.912,2.841-6.357,4.366-10.333,4.366
		C296.005,418.993,292.561,417.468,289.65,414.627z"/>
</g>
</svg>
