<?xml version="1.0" standalone="no"?><!DOCTYPE svg PUBLIC "-//W3C//DTD SVG 1.1//EN" "http://www.w3.org/Graphics/SVG/1.1/DTD/svg11.dtd" ><svg xmlns="http://www.w3.org/2000/svg"><metadata>Generated by Glyphter</metadata><defs><font id="glyphs" horiz-adv-x="0"><font-face units-per-em="1024" ascent="1024" descent="0" font-family="glyphs" font-weight="normal" /><missing-glyph horiz-adv-x="0" /><glyph unicode="&#x0041;" d="M512.484,127.996C468.485,127.996,423.815,133.34,378.472,143.996C355.785,117.34,332.618,94.173,308.97,74.494C285.323,54.814,265.324,40.319,248.972,31.007C232.621,21.695,216.813,14.528,201.486,9.504C186.158,4.48,176.015,1.664,170.991,0.992C165.967,0.32,162.479,0,160.495,0C177.838,37.983,187.854,79.486,190.51,124.508C193.166,169.531,188.494,207.354,176.495,238.009C121.808,280.023,78.834,330.358,47.507,389.012C16.18,447.666,0.532,510,0.5,576.014C0.5,636.684,14.004,694.698,41.011,750.025C68.018,805.351,104.337,853.029,149.999,893.028C195.662,933.027,250.156,964.866,313.482,988.513C376.808,1012.16,443.142,1024,512.484,1024C581.826,1024,648.16,1012.16,711.486,988.513C774.812,964.866,829.306,933.027,874.969,893.028C920.631,853.029,956.95,805.351,983.957,750.025C1010.964,694.698,1024.468,636.684,1024.468,576.014C1024.468,515.344,1010.964,457.33,983.957,402.003C956.95,346.677,920.631,298.999,874.969,259C829.306,219.001,774.812,187.162,711.486,163.515C648.16,139.868,581.826,128.028,512.484,128.028C512.484,128.028,512.484,127.996,512.484,127.996" /><glyph unicode="&#x0042;" d="M512.516,127.996C468.517,127.996,423.847,133.34,378.504,143.996C355.817,117.34,332.65,94.173,309.002,74.494C285.355,54.814,265.356,40.319,249.004,31.007C232.653,21.695,216.845,14.528,201.518,9.504C186.19,4.48,176.207,1.664,171.503,0.992C166.799,0.32,163.151,0,160.495,0C177.838,37.983,187.854,79.486,190.51,124.508C193.166,169.531,188.846,207.354,177.518,238.009C122.192,280.023,78.834,330.358,47.507,389.012C16.18,447.666,0.5,510,0.5,576.014C0.5,636.684,14.004,694.698,41.011,750.025C68.018,805.351,104.337,853.029,149.999,893.028C195.662,933.027,250.156,964.866,313.482,988.513C376.808,1012.16,443.142,1024,512.484,1024C581.826,1024,648.16,1012.16,711.486,988.513C774.812,964.866,829.306,933.027,874.969,893.028C920.631,853.029,956.95,805.351,983.957,750.025C1010.964,694.698,1024.468,636.684,1024.468,576.014C1024.468,515.344,1010.964,457.33,983.957,402.003C956.95,346.677,920.631,298.999,874.969,259C829.306,219.001,774.812,187.162,711.486,163.515C648.16,139.868,581.826,128.028,512.484,128.028C512.484,128.028,512.516,127.996,512.516,127.996M256.012,639.98C238.349,639.98,223.341,633.804,211.021,621.485C198.702,609.165,192.526,594.157,192.526,576.494C192.526,558.831,198.702,543.663,211.021,530.991C223.341,518.32,238.349,511.984,256.012,511.984C273.675,511.984,288.843,518.32,301.515,530.991C314.186,543.663,320.522,558.831,320.522,576.494C320.522,594.157,314.186,609.165,301.515,621.485C288.843,633.804,273.675,639.98,256.012,639.98C256.012,639.98,256.012,639.98,256.012,639.98M512.004,639.98C494.341,639.98,479.333,633.804,467.013,621.485C454.694,609.165,448.518,594.157,448.518,576.494C448.518,558.831,454.694,543.663,467.013,530.991C479.333,518.32,494.341,511.984,512.004,511.984C529.667,511.984,544.835,518.32,557.507,530.991C570.178,543.663,576.514,558.831,576.514,576.494C576.514,594.157,570.178,609.165,557.507,621.485C544.835,633.804,529.667,639.98,512.004,639.98C512.004,639.98,512.004,639.98,512.004,639.98M767.996,639.98C750.333,639.98,735.325,633.804,723.005,621.485C710.686,609.165,704.51,594.157,704.51,576.494C704.51,558.831,710.686,543.663,723.005,530.991C735.325,518.32,750.333,511.984,767.996,511.984C785.659,511.984,800.827,518.32,813.499,530.991C826.17,543.663,832.506,558.831,832.506,576.494C832.506,594.157,826.17,609.165,813.499,621.485C800.827,633.804,785.659,639.98,767.996,639.98C767.996,639.98,767.996,639.98,767.996,639.98" /><glyph unicode="&#x0043;" d="M512.484,0C405.159,0,307.498,31.007,219.501,92.989C196.174,64.318,165.167,41.663,126.512,24.991C87.857,8.32,45.843,0,0.5,0C17.171,0,31.667,25.503,43.987,76.51C56.306,127.516,63.154,190.362,64.498,265.016C21.843,341.685,0.5,424.019,0.5,512.016C0.5,604.685,23.347,690.346,69.01,769C114.672,847.654,176.846,909.828,255.5,955.49C334.154,1001.153,419.815,1024,512.484,1024C605.153,1024,690.814,1001.153,769.468,955.49C848.122,909.828,910.296,847.654,955.958,769C1001.621,690.346,1024.468,604.685,1024.468,512.016C1024.468,419.347,1001.621,333.686,955.958,255.032C910.296,176.378,848.122,114.204,769.468,68.542C690.814,22.879,605.153,0.032,512.484,0.032C512.484,0.032,512.484,0,512.484,0" /><glyph unicode="&#x0044;" d="M512.484,0C405.159,0,307.498,31.007,219.501,92.989C196.174,64.318,165.167,41.663,126.512,24.991C87.857,8.32,45.843,0,0.5,0C17.171,0,31.667,25.503,43.987,76.51C56.306,127.516,63.154,190.362,64.498,265.016C21.843,341.685,0.5,424.019,0.5,512.016C0.5,581.358,14.004,647.692,41.011,711.018C68.018,774.344,104.337,828.838,149.999,874.501C195.662,920.163,250.156,956.482,313.482,983.489C376.808,1010.496,443.142,1024,512.484,1024C581.826,1024,648.16,1010.496,711.486,983.489C774.812,956.482,829.306,920.163,874.969,874.501C920.631,828.838,956.95,774.344,983.957,711.018C1010.964,647.692,1024.468,581.358,1024.468,512.016C1024.468,442.674,1010.964,376.34,983.957,313.014C956.95,249.688,920.631,195.194,874.969,149.531C829.306,103.869,774.812,67.55,711.486,40.543C648.16,13.536,581.826,0.032,512.484,0.032C512.484,0.032,512.484,0,512.484,0M512.484,895.972C443.142,895.972,378.984,878.821,319.978,844.486C260.972,810.151,214.317,763.496,179.982,704.49C145.647,645.484,128.496,581.326,128.496,511.984C128.496,442.642,145.647,378.484,179.982,319.478C214.317,260.472,260.972,213.817,319.978,179.482C378.984,145.147,443.142,127.996,512.484,127.996C581.826,127.996,645.984,145.147,704.99,179.482C763.996,213.817,810.651,260.472,844.986,319.478C879.321,378.484,896.472,442.642,896.472,511.984C896.472,581.326,879.321,645.484,844.986,704.49C810.651,763.496,763.996,810.151,704.99,844.486C645.984,878.821,581.826,895.972,512.484,895.972C512.484,895.972,512.484,895.972,512.484,895.972" /><glyph unicode="&#x0045;" d="M512.484,0C405.159,0,307.498,31.007,219.501,92.989C196.174,64.318,165.167,41.663,126.512,24.991C87.857,8.32,45.843,0,0.5,0C17.171,0,31.667,25.503,43.987,76.51C56.306,127.516,63.154,190.362,64.498,265.016C21.843,341.685,0.5,424.019,0.5,512.016C0.5,604.685,23.347,690.346,69.01,769C114.672,847.654,176.846,909.828,255.5,955.49C334.154,1001.153,419.815,1024,512.484,1024C605.153,1024,690.814,1001.153,769.468,955.49C848.122,909.828,910.296,847.654,955.958,769C1001.621,690.346,1024.468,604.685,1024.468,512.016C1024.468,419.347,1001.621,333.686,955.958,255.032C910.296,176.378,848.122,114.204,769.468,68.542C690.814,22.879,605.153,0.032,512.484,0.032C512.484,0.032,512.484,0,512.484,0M321.002,575.982C303.339,575.982,288.171,569.806,275.499,557.487C262.828,545.167,256.492,529.999,256.492,511.984C256.492,493.969,262.828,478.801,275.499,466.481C288.171,454.162,303.339,447.986,321.002,447.986C338.665,447.986,353.673,454.322,365.993,466.993C378.312,479.665,384.488,494.673,384.488,511.984C384.488,529.295,378.312,544.303,365.993,556.975C353.673,569.646,338.665,575.982,321.002,575.982C321.002,575.982,321.002,575.982,321.002,575.982M512.996,575.982C495.333,575.982,480.165,569.806,467.493,557.487C454.822,545.167,448.486,530.159,448.486,512.496C448.486,494.833,454.822,479.665,467.493,466.993C480.165,454.322,495.333,447.986,512.996,447.986C530.659,447.986,545.667,454.162,557.987,466.481C570.306,478.801,576.482,493.969,576.482,511.984C576.482,529.999,570.306,545.167,557.987,557.487C545.667,569.806,530.659,575.982,512.996,575.982C512.996,575.982,512.996,575.982,512.996,575.982M704.99,575.982C687.327,575.982,672.159,569.646,659.487,556.975C646.816,544.303,640.48,529.295,640.48,511.984C640.48,494.673,646.816,479.665,659.487,466.993C672.159,454.322,687.327,447.986,704.99,447.986C722.653,447.986,737.661,454.322,749.981,466.993C762.3,479.665,768.476,494.673,768.476,511.984C768.476,529.295,762.3,544.303,749.981,556.975C737.661,569.646,722.653,575.982,704.99,575.982C704.99,575.982,704.99,575.982,704.99,575.982" /><glyph unicode="&#x0046;" d="M512,512" /><glyph unicode="&#x0047;" d="M896,789.656C896,789.656,768,789.656,768,789.656C768,860.056,710.4,917.656,640,917.656C640,917.656,128,917.656,128,917.656C57.6,917.656,0,860.056,0,789.656C0,789.656,0,491,0,491C0,420.6,57.6,363,128,363C128,363,128,235,128,235C128,235,256,363,256,363C256,292.6,313.6,235,384,235C384,235,725.344,235,725.344,235C725.344,235,853.344,107,853.344,107C853.344,107,853.344,235,853.344,235C853.344,235,896,235,896,235C966.4,235,1024,292.6,1024,363C1024,363,1024,661.656,1024,661.656C1024,732.056,966.4,789.656,896,789.656C896,789.656,896,789.656,896,789.656M128,448.312C104.864,448.312,85.344,467.864,85.344,490.968C85.344,490.968,85.344,789.624,85.344,789.624C85.344,812.76,104.896,832.28,128,832.28C128,832.28,640,832.28,640,832.28C663.136,832.28,682.656,812.728,682.656,789.624C682.656,789.624,682.656,746.968,682.656,746.968C682.656,746.968,405.312,746.968,405.312,746.968C346.464,746.968,298.656,699.128,298.656,640.312C298.656,640.312,298.656,448.312,298.656,448.312C298.656,448.312,128,448.312,128,448.312C128,448.312,128,448.312,128,448.312M938.656,362.968C938.656,339.832,919.104,320.312,896,320.312C896,320.312,384,320.312,384,320.312C360.864,320.312,341.344,339.864,341.344,362.968C341.344,362.968,341.344,640.312,341.344,640.312C341.344,675.608,370.048,704.312,405.344,704.312C405.344,704.312,896,704.312,896,704.312C919.136,704.312,938.656,684.76,938.656,661.656C938.656,661.656,938.656,363,938.656,363C938.656,363,938.656,362.968,938.656,362.968" /><glyph unicode="&#x0048;" d="M853.833,853.459C884.681,853.459,910.708,827.389,910.708,796.584C910.708,796.584,910.708,398.376,910.708,398.376C910.708,367.528,884.639,341.501,853.833,341.501C853.833,341.501,351.561,341.501,351.561,341.501C351.561,341.501,341.833,331.773,341.833,331.773C341.833,331.773,341.833,341.501,341.833,341.501C341.833,341.501,171.167,341.501,171.167,341.501C140.319,341.501,114.292,367.571,114.292,398.376C114.292,398.376,114.292,796.584,114.292,796.584C114.292,827.432,140.361,853.459,171.167,853.459C171.167,853.459,853.833,853.459,853.833,853.459C853.833,853.459,853.833,853.459,853.833,853.459M853.833,967.208C853.833,967.208,171.167,967.208,171.167,967.208C77.3,967.208,0.5,890.408,0.5,796.541C0.5,796.541,0.5,398.333,0.5,398.333C0.5,304.467,77.3,227.667,171.167,227.667C171.167,227.667,228.041,227.667,228.041,227.667C228.041,227.667,228.041,57,228.041,57C228.041,57,398.708,227.667,398.708,227.667C398.708,227.667,853.833,227.667,853.833,227.667C947.7,227.667,1024.5,304.467,1024.5,398.333C1024.5,398.333,1024.5,796.541,1024.5,796.541C1024.5,890.408,947.7,967.208,853.833,967.208C853.833,967.208,853.833,967.208,853.833,967.208" /><glyph unicode="&#x0049;" d="M862.314,943.314C862.314,943.314,161.686,943.314,161.686,943.314C72.759,943.314,0,870.555,0,781.627C0,781.627,0,404.373,0,404.373C0,315.445,72.759,242.686,161.686,242.686C161.686,242.686,215.568,242.686,215.568,242.686C215.568,242.686,215.568,81,215.568,81C215.568,81,377.255,242.686,377.255,242.686C377.255,242.686,862.314,242.686,862.314,242.686C951.241,242.686,1024,315.445,1024,404.373C1024,404.373,1024,781.627,1024,781.627C1024,870.555,951.241,943.314,862.314,943.314C862.314,943.314,862.314,943.314,862.314,943.314M916.196,404.373C916.196,375.148,891.498,350.491,862.314,350.491C862.314,350.491,161.686,350.491,161.686,350.491C132.462,350.491,107.804,375.188,107.804,404.373C107.804,404.373,107.804,781.627,107.804,781.627C107.804,810.852,132.502,835.509,161.686,835.509C161.686,835.509,862.314,835.509,862.314,835.509C891.538,835.509,916.196,810.812,916.196,781.627C916.196,781.627,916.196,404.373,916.196,404.373C916.196,404.373,916.196,404.373,916.196,404.373M269.45,485.216C209.95,485.216,161.646,533.52,161.646,593.02C161.646,652.521,209.95,700.825,269.45,700.825C328.951,700.825,377.255,652.521,377.255,593.02C377.255,533.52,328.951,485.216,269.45,485.216C269.45,485.216,269.45,485.216,269.45,485.216M269.45,646.902C239.7,646.902,215.568,622.77,215.568,593.02C215.568,563.27,239.7,539.138,269.45,539.138C299.201,539.138,323.332,563.27,323.332,593.02C323.332,622.77,299.201,646.902,269.45,646.902C269.45,646.902,269.45,646.902,269.45,646.902M511.98,485.216C452.479,485.216,404.175,533.52,404.175,593.02C404.175,652.521,452.479,700.825,511.98,700.825C571.48,700.825,619.784,652.521,619.784,593.02C619.784,533.52,571.48,485.216,511.98,485.216C511.98,485.216,511.98,485.216,511.98,485.216M511.98,646.902C482.23,646.902,458.098,622.77,458.098,593.02C458.098,563.27,482.23,539.138,511.98,539.138C541.73,539.138,565.862,563.27,565.862,593.02C565.862,622.77,541.73,646.902,511.98,646.902C511.98,646.902,511.98,646.902,511.98,646.902M754.509,485.216C695.009,485.216,646.705,533.52,646.705,593.02C646.705,652.521,695.009,700.825,754.509,700.825C814.01,700.825,862.314,652.521,862.314,593.02C862.314,533.52,814.01,485.216,754.509,485.216C754.509,485.216,754.509,485.216,754.509,485.216M754.509,646.902C724.759,646.902,700.627,622.77,700.627,593.02C700.627,563.27,724.759,539.138,754.509,539.138C784.26,539.138,808.391,563.27,808.391,593.02C808.391,622.77,784.26,646.902,754.509,646.902C754.509,646.902,754.509,646.902,754.509,646.902" /><glyph unicode="&#x004a;" d="M896.032,192.5C896.032,192.5,896.032,0.5,896.032,0.5C891.36,3.156,884.704,7.156,876.032,12.5C867.36,17.844,849.376,32.5,822.016,56.5C794.656,80.5,767.328,108.5,740,140.5C707.328,132.5,674.016,128.5,640,128.5C591.328,128.5,546.496,133.492,505.504,143.508C464.512,153.524,431.008,165.844,404.992,180.5C378.976,195.156,356.832,211.476,338.496,229.492C320.16,247.508,307.168,264.18,299.488,279.508C291.808,294.836,287.968,308.5,288,320.5C288,320.5,384,320.5,384,320.5C469.984,320.5,546.496,335.508,613.504,365.492C680.512,395.476,733.664,439.828,772.992,498.484C812.32,557.14,831.968,625.812,832,704.5C960,639.828,1024,549.172,1024,432.5C1024,337.172,981.344,257.172,896,192.5C896,192.5,896.032,192.5,896.032,192.5M384.032,384.5C350.016,384.5,316.704,388.5,284.032,396.5C256.704,364.5,230.048,336.82,204.032,313.492C178.016,290.164,158.688,274.804,146.016,267.476C146.016,267.476,128,256.468,128,256.468C128,256.468,128,448.468,128,448.468C42.656,513.14,0,593.14,0,688.468C0,749.14,17.152,805.3,51.488,856.98C85.824,908.66,132.48,949.492,191.488,979.476C250.496,1009.46,314.816,1024.468,384.48,1024.468C454.144,1024.468,518.464,1009.46,577.472,979.476C636.48,949.492,682.976,908.66,716.96,856.98C750.944,805.3,767.936,749.14,767.968,688.468C768,627.796,750.656,574.132,715.968,527.476C681.28,480.82,634.944,445.332,576.96,420.98C518.976,396.628,454.656,384.468,383.968,384.468C383.968,384.468,384.032,384.5,384.032,384.5M384.032,960.5C326.016,960.5,272.512,949.172,223.52,926.484C174.528,903.796,135.68,872.82,107.008,833.492C78.336,794.164,64,751.348,64,704.98C64,658.612,78.336,615.796,107.008,576.468C135.68,537.14,174.528,505.972,223.52,482.964C272.512,459.956,326.016,448.436,384.032,448.468C442.048,448.5,495.552,459.988,544.544,482.964C593.536,505.94,632.384,537.108,661.056,576.468C689.728,615.828,704.064,658.676,704.064,704.98C704.064,751.284,689.728,794.132,661.056,833.492C632.384,872.852,593.536,903.86,544.544,926.484C495.552,949.108,442.048,960.468,384.032,960.5C384.032,960.5,384.032,960.5,384.032,960.5" /><glyph unicode="&#x004b;" d="M0,0C0,0,0,1024,0,1024C0,1024,1024,1024,1024,1024C1024,1024,1024,0,1024,0C1024,0,0,0,0,0C0,0,0,0,0,0M960,960C960,960,64,960,64,960C64,960,64,192,64,192C64,192,960,192,960,192C960,192,960,960,960,960C960,960,960,960,960,960M448,476.992C448,476.992,448,489.984,448,489.984C403.328,504.672,370.816,534.656,350.496,580C330.176,625.344,320,680.32,320,744.992C320,794.336,337.824,831.84,373.504,857.504C409.184,883.168,455.328,896,512,896C568.672,896,614.816,883.168,650.496,857.504C686.176,831.84,704,794.336,704,744.992C704,600.32,661.344,515.008,576,488.992C576,488.992,576,476.992,576,476.992C651.328,470.304,712.48,452.64,759.488,424C806.496,395.36,830.656,357.344,832,309.984C832,303.296,829.152,297.312,823.488,291.968C817.824,286.624,809.152,282.144,797.472,278.464C785.792,274.784,773.792,271.616,761.472,268.96C749.152,266.304,733.472,264.128,714.464,262.464C695.456,260.8,678.784,259.456,664.448,258.464C650.112,257.472,631.936,256.8,609.952,256.448C587.968,256.096,571.136,255.936,559.456,255.936C559.456,255.936,464.448,255.936,464.448,255.936C464.448,255.936,447.616,256.096,413.952,256.448C380.288,256.8,362.112,257.472,359.456,258.464C356.8,259.456,340.128,260.8,309.44,262.464C278.752,264.128,263.104,266.304,262.432,268.96C261.76,271.616,249.76,274.784,226.432,278.464C203.104,282.144,194.432,286.624,200.416,291.968C206.4,297.312,203.584,303.296,191.904,309.984C193.248,357.312,217.408,395.328,264.416,424C311.424,452.672,372.576,470.336,447.904,476.992C447.904,476.992,448,476.992,448,476.992" /><glyph unicode="&#x004c;" d="M1024,128C1024,110.656,1017.824,95.648,1005.504,83.008C993.184,70.368,978.016,64.032,960,64C960,64,64,64,64,64C45.984,64,30.816,70.336,18.496,83.008C6.176,95.68,0,110.688,0,128C0,139.328,3.008,149.984,8.992,160C8.992,160,448,896,448,896C453.344,908,457.152,916,459.488,920C461.824,924,465.824,930.144,471.488,938.496C477.152,946.848,483.168,952.512,489.504,955.488C495.84,958.464,503.328,959.968,512,960C523.328,960,533.152,956.672,541.504,949.984C549.856,943.296,556.192,936.128,560.512,928.48C564.832,920.832,570.016,909.984,576,895.968C576,895.968,1015.008,159.968,1015.008,159.968C1020.992,149.952,1024,139.296,1024,127.968C1024,127.968,1024,128,1024,128M576,640C576,658.016,569.824,673.184,557.504,685.504C545.184,697.824,530.016,704,512,704C493.984,704,478.816,697.824,466.496,685.504C454.176,673.184,448,658.016,448,640C448,640,448,448,448,448C448,430.656,454.336,415.648,467.008,403.008C479.68,390.368,494.688,384.032,512,384C529.312,383.968,544.32,390.304,556.992,403.008C569.664,415.712,576,430.688,576,448C576,448,576,640,576,640C576,640,576,640,576,640M511.488,320C493.824,320,478.816,313.824,466.496,301.504C454.176,289.184,448,274.176,448,256.512C448,238.848,454.336,223.68,467.008,211.008C479.68,198.336,494.688,192,512,192C529.312,192,544.32,198.336,556.992,211.008C569.664,223.68,576,238.848,576,256.512C576,274.176,569.664,289.184,556.992,301.504C544.32,313.824,529.152,320,511.488,320C511.488,320,511.488,320,511.488,320" /><glyph unicode="&#x004d;" d="M512,0C419.328,0,333.664,22.848,255.008,68.512C176.352,114.176,114.176,176.352,68.512,255.008C22.848,333.664,0,419.328,0,512C0,604.672,22.848,690.336,68.512,768.992C114.176,847.648,176.352,909.824,255.008,955.488C333.664,1001.152,419.328,1024,512,1024C604.672,1024,690.336,1001.152,768.992,955.488C847.648,909.824,909.824,847.648,955.488,768.992C1001.152,690.336,1024,604.672,1024,512C1024,419.328,1001.152,333.664,955.488,255.008C909.824,176.352,847.648,114.176,768.992,68.512C690.336,22.848,604.672,0,512,0C512,0,512,0,512,0M512,960C451.328,960,393.312,948.16,337.984,924.512C282.656,900.864,234.976,869.024,194.976,829.024C154.976,789.024,123.136,741.344,99.488,686.016C75.84,630.688,64,572.672,64,512C64,451.328,75.84,393.312,99.488,337.984C123.136,282.656,154.976,234.976,194.976,194.976C234.976,154.976,282.656,123.136,337.984,99.488C393.312,75.84,451.328,64,512,64C572.672,64,630.688,75.84,686.016,99.488C741.344,123.136,789.024,154.976,829.024,194.976C869.024,234.976,900.864,282.656,924.512,337.984C948.16,393.312,960,451.328,960,512C960,572.672,948.16,630.688,924.512,686.016C900.864,741.344,869.024,789.024,829.024,829.024C789.024,869.024,741.344,900.864,686.016,924.512C630.688,948.16,572.672,960,512,960C512,960,512,960,512,960M700,252.992C700,252.992,635.008,472,635.008,472C635.008,472,816,611.008,816,611.008C826.656,578.336,832,545.344,832,512C832,460,820.16,411.328,796.512,365.984C772.864,320.64,740.672,282.976,700,252.992C700,252.992,700,252.992,700,252.992M588,616.992C588,616.992,512,832,512,832C581.984,832,644.992,811.328,700.992,769.984C756.992,728.64,795.328,675.648,816,610.976C816,610.976,588,616.992,588,616.992M208,611.008C228.672,675.68,267.008,728.672,323.008,770.016C379.008,811.36,442.016,832.032,512,832.032C512,832.032,436,617.024,436,617.024C436,617.024,208,611.008,208,611.008M388.992,472C388.992,472,324,252.992,324,252.992C283.328,282.976,251.168,320.64,227.488,365.984C203.808,411.328,191.968,460,192,512C192,545.344,197.344,578.336,208,611.008C208,611.008,388.992,472,388.992,472M512,383.008C512,383.008,700,252.992,700,252.992C644,212.32,581.344,192,512,192C442.656,192,380,212.32,324,252.992C324,252.992,512,383.008,512,383.008" /><glyph unicode="&#x004e;" d="M512.484,0C405.159,0,307.498,31.007,219.501,92.989C196.174,64.318,165.167,41.663,126.512,24.991C87.857,8.32,45.843,0,0.5,0C17.171,0,31.667,25.503,43.987,76.51C56.306,127.516,63.154,190.362,64.498,265.016C21.843,341.685,0.5,424.019,0.5,512.016C0.5,604.685,23.347,690.346,69.01,769C114.672,847.654,176.846,909.828,255.5,955.49C334.154,1001.153,419.815,1024,512.484,1024C605.153,1024,690.814,1001.153,769.468,955.49C848.122,909.828,910.296,847.654,955.958,769C1001.621,690.346,1024.468,604.685,1024.468,512.016C1024.468,419.347,1001.621,333.686,955.958,255.032C910.296,176.378,848.122,114.204,769.468,68.542C690.814,22.879,605.153,0.032,512.484,0.032C512.484,0.032,512.484,0,512.484,0M512.484,895.972C443.142,895.972,378.984,878.821,319.978,844.486C260.972,810.151,214.317,763.496,179.982,704.49C145.647,645.484,128.496,581.326,128.496,511.984C128.496,442.642,145.647,378.484,179.982,319.478C214.317,260.472,260.972,213.817,319.978,179.482C378.984,145.147,443.142,127.996,512.484,127.996C581.826,127.996,645.984,145.147,704.99,179.482C763.996,213.817,810.651,260.472,844.986,319.478C879.321,378.484,896.472,442.642,896.472,511.984C896.472,581.326,879.321,645.484,844.986,704.49C810.651,763.496,763.996,810.151,704.99,844.486C645.984,878.821,581.826,895.972,512.484,895.972C512.484,895.972,512.484,895.972,512.484,895.972M704.99,447.986C687.327,447.986,672.159,454.322,659.487,466.993C646.816,479.665,640.48,494.673,640.48,511.984C640.48,529.295,646.816,544.303,659.487,556.975C672.159,569.646,687.327,575.982,704.99,575.982C722.653,575.982,737.661,569.646,749.981,556.975C762.3,544.303,768.476,529.295,768.476,511.984C768.476,494.673,762.3,479.665,749.981,466.993C737.661,454.322,722.653,447.986,704.99,447.986C704.99,447.986,704.99,447.986,704.99,447.986M512.996,447.986C495.333,447.986,480.165,454.322,467.493,466.993C454.822,479.665,448.486,494.673,448.486,511.984C448.486,529.295,454.822,544.303,467.493,556.975C480.165,569.646,495.173,575.982,512.484,575.982C529.795,575.982,544.803,569.646,557.475,556.975C570.146,544.303,576.482,529.135,576.482,511.472C576.482,493.809,570.306,478.801,557.987,466.481C545.667,454.162,530.659,447.986,512.996,447.986C512.996,447.986,512.996,447.986,512.996,447.986M321.002,447.986C303.339,447.986,288.171,454.162,275.499,466.481C262.828,478.801,256.492,493.969,256.492,511.984C256.492,529.999,262.828,545.167,275.499,557.487C288.171,569.806,303.339,575.982,321.002,575.982C338.665,575.982,353.673,569.646,365.993,556.975C378.312,544.303,384.488,529.135,384.488,511.472C384.488,493.809,378.312,478.801,365.993,466.481C353.673,454.162,338.665,447.986,321.002,447.986C321.002,447.986,321.002,447.986,321.002,447.986" /><glyph unicode="&#x004f;" d="M960,448.5C960,448.5,896,448.5,896,448.5C877.984,448.5,862.816,454.676,850.496,466.996C838.176,479.316,832,494.484,832,512.5C832,530.516,838.336,545.684,851.008,558.004C863.68,570.324,878.688,576.5,896,576.5C896,576.5,960,576.5,960,576.5C977.344,576.5,992.352,570.324,1004.992,558.004C1017.632,545.684,1023.968,530.676,1024,513.012C1024.032,495.348,1017.856,480.18,1005.504,467.508C993.152,454.836,977.984,448.5,960,448.5C960,448.5,960,448.5,960,448.5M836.992,754.484C824.992,742.484,810.816,736.468,794.496,736.468C778.176,736.468,764.352,742.292,752.992,753.972C741.632,765.652,735.968,779.636,736,795.988C736.032,812.34,741.696,826.484,752.992,838.484C752.992,838.484,795.008,879.476,795.008,879.476C806.336,891.476,820.16,897.492,836.512,897.492C852.864,897.492,866.848,891.668,878.528,879.988C890.208,868.308,896.032,854.324,896.032,837.972C896.032,821.62,890.368,807.796,879.04,796.468C879.04,796.468,836.992,754.484,836.992,754.484M768,224.5C768,215.828,764.832,208.34,758.496,202.004C752.16,195.668,744.672,192.5,736,192.5C736,192.5,288,192.5,288,192.5C279.328,192.5,271.84,195.668,265.504,202.004C259.168,208.34,256,215.828,256,224.5C256,224.5,256,512.5,256,512.5C256,583.188,280.992,643.508,331.008,693.492C381.024,743.476,441.344,768.468,512,768.5C582.656,768.532,642.976,743.508,692.992,693.492C743.008,643.476,768,583.124,768,512.5C768,512.5,768,224.5,768,224.5C768,224.5,768,224.5,768,224.5M512.512,832.5C494.848,832.5,479.68,838.836,467.008,851.508C454.336,864.18,448,879.188,448,896.5C448,896.5,448,960.5,448,960.5C448,978.516,454.176,993.684,466.496,1006.004C478.816,1018.324,493.984,1024.5,512,1024.5C530.016,1024.5,545.184,1018.324,557.504,1006.004C569.824,993.684,576,978.516,576,960.5C576,960.5,576,896.5,576,896.5C576,879.156,569.824,864.148,557.504,851.508C545.184,838.868,530.176,832.532,512.512,832.5C512.512,832.5,512.512,832.5,512.512,832.5M187.008,754.484C187.008,754.484,146.016,796.5,146.016,796.5C134.016,807.828,128,821.652,128,838.004C128,854.356,133.824,868.34,145.504,880.02C157.184,891.7,171.168,897.524,187.52,897.524C203.872,897.524,217.696,891.508,229.024,879.508C229.024,879.508,271.04,838.516,271.04,838.516C282.368,826.516,288.032,812.34,288.032,796.02C288.032,779.7,282.368,765.876,271.04,754.516C259.712,743.156,245.888,737.492,229.536,737.524C213.184,737.556,199.04,743.22,187.04,754.516C187.04,754.516,187.008,754.484,187.008,754.484M192,513.012C192,495.348,185.824,480.18,173.504,467.508C161.184,454.836,146.016,448.5,128,448.5C128,448.5,64,448.5,64,448.5C46.656,448.5,31.648,454.836,19.008,467.508C6.368,480.18,0.032,495.348,0,513.012C-0.032,530.676,6.304,545.684,19.008,558.004C31.712,570.324,46.688,576.5,64,576.5C64,576.5,128,576.5,128,576.5C146.016,576.5,161.184,570.324,173.504,558.004C185.824,545.684,192,530.676,192,513.012C192,513.012,192,513.012,192,513.012M64,128.5C64,128.5,960,128.5,960,128.5C977.344,128.5,992.352,122.324,1004.992,110.004C1017.632,97.684,1023.968,82.516,1024,64.5C1024.032,46.484,1017.696,31.316,1004.992,18.996C992.288,6.676,977.312,0.5,960,0.5C960,0.5,64,0.5,64,0.5C46.656,0.5,31.648,6.676,19.008,18.996C6.368,31.316,0.032,46.484,0,64.5C-0.032,82.516,6.304,97.684,19.008,110.004C31.712,122.324,46.688,128.5,64,128.5C64,128.5,64,128.5,64,128.5" /><glyph unicode="&#x0050;" d="M590.634,433.798C489.319,332.442,371.965,235.527,325.567,282.005C259.13,348.362,218.252,406.239,71.819,288.605C-74.614,170.97,37.821,92.534,102.218,28.137C176.454,-46.019,453.161,24.217,726.748,297.764C1000.215,571.271,1070.611,848.058,996.295,922.294C931.978,986.691,853.582,1099.046,735.907,952.693C618.233,806.34,676.07,765.382,742.507,698.945C788.785,652.467,691.949,535.193,590.634,433.798C590.634,433.798,590.634,433.798,590.634,433.798" /><glyph unicode="&#x0051;" d="M944.641,887.584C944.641,887.584,853.003,979.146,853.003,979.146C824.091,1008.096,785.605,1024.027,744.707,1024.027C703.809,1024.027,665.323,1008.096,636.411,979.146C636.411,979.146,555.419,898.154,555.419,898.154C495.68,838.415,495.68,741.301,555.419,681.562C555.419,681.562,625.842,611.139,625.842,611.139C625.842,611.139,412.811,398.108,412.811,398.108C412.811,398.108,342.388,468.531,342.388,468.531C313.476,497.482,274.99,513.412,234.092,513.412C193.194,513.412,154.708,497.482,125.796,468.531C125.796,468.531,44.804,387.539,44.804,387.539C-14.935,327.8,-14.935,230.686,44.804,170.947C44.804,170.947,136.404,79.386,136.404,79.386C160.146,55.644,228.118,0.5,346.562,0.5C487.676,0.5,637.292,78.582,791.349,232.563C1110.225,551.477,1037.695,794.3,944.641,887.546C944.641,887.546,944.641,887.584,944.641,887.584M627.603,825.969C627.603,825.969,708.595,906.961,708.595,906.961C718.552,916.918,731.61,921.934,744.707,921.934C757.803,921.934,770.862,916.918,780.818,906.961C780.818,906.961,836.115,851.703,836.115,851.703C836.115,851.703,682.9,698.526,682.9,698.526C682.9,698.526,627.641,753.785,627.641,753.785C607.69,773.736,607.69,806.018,627.641,825.969C627.641,825.969,627.603,825.969,627.603,825.969M117.027,243.17C97.076,263.121,97.076,295.403,117.027,315.355C117.027,315.355,198.019,396.347,198.019,396.347C207.976,406.303,221.034,411.32,234.131,411.32C247.227,411.32,260.285,406.303,270.242,396.347C270.242,396.347,325.5,341.088,325.5,341.088C325.5,341.088,172.362,187.912,172.362,187.912C172.362,187.912,117.065,243.17,117.065,243.17C117.065,243.17,117.027,243.17,117.027,243.17M719.165,304.785C561.737,147.435,435.749,102.631,346.601,102.631C277.709,102.631,230.837,129.322,208.627,151.609C208.435,151.8,361.535,304.977,361.535,304.977C361.535,304.977,376.7,289.812,376.7,289.812C386.656,279.856,399.715,274.839,412.811,274.839C425.908,274.839,438.966,279.856,448.923,289.812C448.923,289.812,734.138,575.027,734.138,575.027C754.089,594.979,754.089,627.261,734.138,647.212C734.138,647.212,718.973,662.376,718.973,662.376C718.973,662.376,872.188,815.553,872.188,815.553C923.387,764.277,998.138,583.797,719.165,304.747C719.165,304.747,719.165,304.785,719.165,304.785" /><glyph unicode="&#x0052;" d="M653.305,749.149C653.305,749.149,876.255,972.054,876.255,972.054C876.255,972.054,849.941,998.143,849.941,998.143C815.922,1032.163,756.535,1032.163,722.515,998.143C722.515,998.143,627.216,902.844,627.216,902.844C610.139,885.767,600.767,863.148,600.767,839.086C600.767,815.025,610.139,792.406,627.081,775.418C627.081,775.418,653.26,749.149,653.26,749.149C653.26,749.149,653.305,749.149,653.305,749.149M249.084,397.331C215.065,431.351,155.678,431.351,121.658,397.331C121.658,397.331,26.359,302.032,26.359,302.032C9.372,284.955,0,262.336,0,238.274C0,214.213,9.372,191.594,26.494,174.471C26.494,174.471,52.764,148.518,52.764,148.518C52.764,148.518,275.218,370.972,275.218,370.972C275.218,370.972,249.084,397.286,249.084,397.286C249.084,397.286,249.084,397.331,249.084,397.331M957.496,890.588C957.496,890.588,936.228,911.856,936.228,911.856C936.228,911.856,713.458,689.086,713.458,689.086C713.458,689.086,752.524,650.11,752.524,650.11C758.247,644.388,761.311,636.908,761.311,628.843C761.311,620.777,758.202,613.297,752.524,607.575C752.524,607.575,416.928,271.978,416.928,271.978C405.573,260.669,385.792,260.624,374.437,271.978C374.437,271.978,335.371,311.044,335.371,311.044C335.371,311.044,112.962,88.139,112.962,88.139C112.962,88.139,134.23,66.871,134.23,66.871C149.865,51.236,209.072,0.5,317.844,0.5C414.945,0.5,573.551,43.261,777.442,247.106C1184.366,654.121,967.184,880.946,957.496,890.588C957.496,890.588,957.496,890.588,957.496,890.588" /><glyph unicode="&#x0053;" d="M460,415.132C460,415.132,426.688,85.5,426.688,85.5C426.688,85.5,630.208,336.924,630.208,336.924C630.208,336.924,824.928,249.02,824.928,249.02C824.928,249.02,1024,938.812,1024,938.812C1024,938.812,460,415.132,460,415.132C460,415.132,460,415.132,460,415.132M1024,938.812C1024,938.812,0,517.916,0,517.916C0,517.916,241.76,469.5,241.76,469.5C241.76,469.5,426.688,85.5,426.688,85.5C426.688,85.5,293.344,469.5,293.344,469.5C293.344,469.5,1024,938.844,1024,938.844C1024,938.844,1024,938.812,1024,938.812" /><glyph unicode="&#x0054;" d="M1017.492,35.008C1017.492,35.008,667.476,384,667.476,384C667.476,384,1017.492,732.992,1017.492,732.992C1022.164,723.648,1024.5,713.984,1024.5,704C1024.5,704,1024.5,64,1024.5,64C1024.5,53.984,1022.164,44.32,1017.492,35.008C1017.492,35.008,1017.492,35.008,1017.492,35.008M63.508,768C63.508,768,198.516,768,198.516,768C213.844,842.016,250.868,903.168,309.524,951.488C368.18,999.808,435.86,1023.968,512.532,1024C589.204,1024.032,656.884,999.84,715.54,951.488C774.196,903.136,811.22,841.952,826.548,768C826.548,768,961.556,768,961.556,768C961.556,768,512.564,319.008,512.564,319.008C512.564,319.008,63.508,768,63.508,768M696.5,657.984C701.844,664.672,704.5,672.32,704.5,680.992C704.5,689.664,701.844,697.312,696.5,704C696.5,704,576.5,704,576.5,704C576.5,704,576.5,864,576.5,864C576.5,872.672,573.332,880.16,566.996,886.496C560.66,892.832,553.172,896,544.5,896C544.5,896,480.5,896,480.5,896C471.828,896,464.34,892.832,458.004,886.496C451.668,880.16,448.5,872.672,448.5,864C448.5,864,448.5,704,448.5,704C448.5,704,327.508,704,327.508,704C322.164,697.312,319.508,689.664,319.508,680.992C319.508,672.32,322.164,664.672,327.508,657.984C327.508,657.984,512.5,511.968,512.5,511.968C512.5,511.968,696.5,657.984,696.5,657.984M7.508,35.008C2.836,44.352,0.5,54.016,0.5,64C0.5,64,0.5,704,0.5,704C0.5,714.016,2.836,723.68,7.508,732.992C7.508,732.992,357.524,384,357.524,384C357.524,384,7.508,35.008,7.508,35.008M473.492,268C477.492,264,482.676,260.992,488.98,259.008C495.284,257.024,500.788,256.032,505.492,256C505.492,256,512.5,256,512.5,256C529.844,255.328,542.836,259.328,551.508,268C551.508,268,622.516,339.008,622.516,339.008C622.516,339.008,961.524,0,961.524,0C961.524,0,63.508,0,63.508,0C63.508,0,402.516,339.008,402.516,339.008C402.516,339.008,473.492,268,473.492,268" /><glyph unicode="&#x0055;" d="M63.936,830.516C63.936,830.516,191.936,830.516,191.936,830.516C209.28,830.516,224.288,824.34,236.928,812.02C249.568,799.7,255.904,784.532,255.936,766.516C255.936,766.516,255.936,441.524,255.936,441.524C255.936,441.524,821.952,1004.532,821.952,1004.532C834.624,1017.204,849.952,1023.54,867.968,1023.54C885.984,1023.54,901.312,1017.204,913.984,1004.532C913.984,1004.532,1004.992,914.516,1004.992,914.516C1017.664,901.844,1024,886.676,1024,869.012C1024,851.348,1017.664,836.18,1004.992,823.508C1004.992,823.508,432.992,255.508,432.992,255.508C432.992,255.508,768,255.508,768,255.508C785.344,255.508,800.352,249.332,812.992,237.012C825.632,224.692,831.968,209.844,832,192.5C832,192.5,832,64.5,832,64.5C832,46.484,825.664,31.316,812.992,18.996C800.32,6.676,785.312,0.5,768,0.5C768,0.5,64,0.5,64,0.5C45.984,0.5,30.816,6.676,18.496,18.996C6.176,31.316,0,46.484,0,64.5C0,64.5,0,766.516,0,766.516C0,784.532,6.176,799.7,18.496,812.02C30.816,824.34,45.984,830.516,64,830.516C64,830.516,63.936,830.516,63.936,830.516" /><glyph unicode="&#x0056;" d="M960.032,830.516C960.032,830.516,832.032,830.516,832.032,830.516C814.688,830.516,799.68,824.34,787.04,812.02C774.4,799.7,768.064,784.532,768.032,766.516C768.032,766.516,768.032,442.516,768.032,442.516C768.032,442.516,201.024,1004.532,201.024,1004.532C189.024,1017.204,174.016,1023.54,156.032,1023.54C138.048,1023.54,122.72,1017.204,110.016,1004.532C110.016,1004.532,19.008,914.516,19.008,914.516C6.336,901.844,0,886.676,0,869.012C0,851.348,6.336,836.18,19.008,823.508C19.008,823.508,591.008,255.508,591.008,255.508C591.008,255.508,256,255.508,256,255.508C238.656,255.508,223.648,249.332,211.008,237.012C198.368,224.692,192.032,209.844,192,192.5C192,192.5,192,64.5,192,64.5C192,46.484,198.336,31.316,211.008,18.996C223.68,6.676,238.688,0.5,256,0.5C256,0.5,960,0.5,960,0.5C978.016,0.5,993.184,6.676,1005.504,18.996C1017.824,31.316,1024,46.484,1024,64.5C1024,64.5,1024,767.508,1024,767.508C1024,784.852,1017.824,799.7,1005.504,812.02C993.184,824.34,978.016,830.516,960,830.516C960,830.516,960.032,830.516,960.032,830.516" /><glyph unicode="&#x0057;" d="M780,75.008C780,75.008,608,128,608,128C608,128,896,416,896,416C896,416,948.992,244,948.992,244C908.32,232,872.992,210.976,842.976,180.992C812.96,151.008,791.968,115.648,779.968,74.976C779.968,74.976,780,75.008,780,75.008M32,672C10.656,693.984,0,720.832,0,752.512C0,784.192,11.008,810.688,32.992,832C32.992,832,192,991.008,192,991.008C213.344,1012.992,239.84,1024,271.488,1024C303.136,1024,329.984,1013.344,352,992C352,992,864,480,864,480C864,480,544,160,544,160C544,160,32,672,32,672M968.992,179.008C968.992,179.008,1024,0,1024,0C1024,0,844.992,55.008,844.992,55.008C855.648,83.68,871.84,108.832,893.504,130.496C915.168,152.16,940.352,168.32,968.992,179.008C968.992,179.008,968.992,179.008,968.992,179.008" /><glyph unicode="&#x0058;" d="M960.47,0.032C960.47,0.032,192.494,0.032,192.494,0.032C175.151,0.032,160.143,6.208,147.503,18.527C134.864,30.847,128.528,46.015,128.496,64.03C128.496,64.03,128.496,424.019,128.496,424.019C128.496,424.019,407.495,146.011,407.495,146.011C419.495,133.34,434.854,127.676,453.51,129.02C453.51,129.02,576.514,129.02,576.514,129.02C593.857,129.02,608.865,135.196,621.505,147.515C634.144,159.835,640.48,175.003,640.512,193.018C640.512,193.018,640.512,320.022,640.512,320.022C640.512,335.35,634.176,349.013,621.505,361.013C621.505,361.013,128.528,853.989,128.528,853.989C128.528,853.989,128.528,958.978,128.528,958.978C128.528,976.993,134.864,992.161,147.535,1004.481C160.207,1016.8,175.215,1022.976,192.526,1022.976C192.526,1022.976,640.512,1022.976,640.512,1022.976C640.512,1022.976,640.512,670.987,640.512,670.987C640.512,662.315,643.52,654.828,649.504,648.492C655.488,642.156,663.167,638.988,672.511,638.988C672.511,638.988,1023.508,638.988,1023.508,638.988C1023.508,638.988,1023.508,63.998,1023.508,63.998C1023.508,45.983,1017.332,30.815,1005.013,18.495C992.693,6.176,977.845,0,960.502,0C960.502,0,960.47,0.032,960.47,0.032M704.478,1024C721.821,1024,736.477,1017.984,748.477,1005.985C748.477,1005.985,1004.469,749.001,1004.469,749.001C1017.14,736.329,1023.476,721.001,1023.476,702.986C1023.476,702.986,704.478,702.986,704.478,702.986C704.478,702.986,704.478,1023.968,704.478,1023.968C704.478,1023.968,704.478,1024,704.478,1024M79.506,580.014C79.506,580.014,11.508,647.02,11.508,647.02C4.18,655.02,0.5,664.363,0.5,675.019C0.5,685.675,4.18,694.698,11.508,702.026C11.508,702.026,66.514,757.032,66.514,757.032C73.842,764.36,83.025,768.04,94.001,768.04C104.977,768.04,114.16,764.36,121.488,757.032C121.488,757.032,188.494,690.026,188.494,690.026C188.494,690.026,79.506,580.014,79.506,580.014M576.482,289.015C576.482,289.015,576.482,225.017,576.482,225.017C576.482,215.673,573.314,207.994,566.978,202.01C560.642,196.026,553.155,193.018,544.483,193.018C544.483,193.018,480.485,193.018,480.485,193.018C471.141,193.018,462.47,196.698,454.47,204.026C454.47,204.026,130.48,528.015,130.48,528.015C130.48,528.015,240.493,638.028,240.493,638.028C240.493,638.028,564.482,314.038,564.482,314.038C572.482,306.038,576.482,297.719,576.482,289.047C576.482,289.047,576.482,289.015,576.482,289.015" /><glyph unicode="&#x0059;" d="M896,0C896,0,256,0,256,0C220.672,0,190.496,12.512,165.504,37.504C140.512,62.496,128,92.672,128,128C128,128,128,640,128,640C92.672,640,62.496,652.512,37.504,677.504C12.512,702.496,0,732.672,0,768C0,768,0,896,0,896C0,931.328,12.512,961.504,37.504,986.496C62.496,1011.488,92.672,1024,128,1024C128,1024,896,1024,896,1024C931.328,1024,961.504,1011.488,986.496,986.496C1011.488,961.504,1024,931.328,1024,896C1024,896,1024,128,1024,128C1024,92.672,1011.488,62.496,986.496,37.504C961.504,12.512,931.328,0,896,0C896,0,896,0,896,0M884,928C884,928,588,928,588,928C582.656,928,579.008,923.168,576.992,913.504C574.976,903.84,576.64,896,581.984,890.016C581.984,890.016,716.992,713.024,716.992,713.024C722.336,707.04,728.672,704.032,736,704.032C743.328,704.032,749.664,707.04,755.008,713.024C755.008,713.024,890.016,890.016,890.016,890.016C895.36,896,897.024,903.84,895.008,913.504C892.992,923.168,889.344,928,884,928C884,928,884,928,884,928M896,640C896,640,256,640,256,640C256,640,256,512,256,512C256,512,896,512,896,512C896,512,896,640,896,640C896,640,896,640,896,640M896,448C896,448,256,448,256,448C256,448,256,320,256,320C256,320,896,320,896,320C896,320,896,448,896,448C896,448,896,448,896,448M896,256C896,256,256,256,256,256C256,256,256,160,256,160C256,151.328,259.168,143.84,265.504,137.504C271.84,131.168,279.328,128,288,128C288,128,864,128,864,128C872.672,128,880.16,131.168,886.496,137.504C892.832,143.84,896,151.328,896,160C896,160,896,256,896,256C896,256,896,256,896,256" /><glyph unicode="&#x005a;" d="M960.002,0C960.002,0,256.024,0,256.024,0C238.681,0,223.673,6.176,211.033,18.495C198.394,30.815,192.058,45.983,192.026,63.998C192.026,63.998,192.026,75.006,192.026,75.006C82.045,181.658,26.687,235.673,26.015,237.017C8.672,253.016,0,278.839,0,314.518C0,350.197,8.672,376.34,26.015,393.012C26.015,393.012,192.026,553.007,192.026,553.007C192.026,553.007,192.026,960.002,192.026,960.002C192.026,977.345,198.362,992.353,211.033,1004.993C223.705,1017.632,238.713,1023.968,256.024,1024C256.024,1024,640.012,1024,640.012,1024C640.012,1024,640.012,672.011,640.012,672.011C640.012,662.667,643.18,654.988,649.516,649.004C655.852,643.02,663.339,640.012,672.011,640.012C672.011,640.012,1023.008,640.012,1023.008,640.012C1023.68,639.34,1024,638.668,1024,637.996C1024,637.996,1024,63.998,1024,63.998C1024,45.983,1017.824,30.815,1005.505,18.495C993.185,6.176,978.017,0,960.002,0C960.002,0,960.002,0,960.002,0M640.012,384.98C640.012,402.323,633.836,417.331,621.517,429.971C609.197,442.61,594.029,448.946,576.014,448.978C576.014,448.978,384.02,448.978,384.02,448.978C384.02,448.978,384.02,506.992,384.02,506.992C386.676,526.992,381.012,544.015,367.029,557.999C355.029,570.67,340.533,577.006,323.542,577.006C306.55,577.006,292.055,570.67,280.055,557.999C280.055,557.999,82.045,361.013,82.045,361.013C70.046,349.013,64.03,334.518,64.03,317.526C64.03,300.535,70.046,286.039,82.045,274.039C90.045,266.04,122.204,234.873,178.554,180.538C234.905,126.204,268.728,93.373,280.055,82.045C292.055,70.046,306.55,64.03,323.542,64.03C340.533,64.03,355.029,70.046,367.029,82.045C381.012,96.029,386.676,113.372,384.02,134.044C384.02,134.044,384.02,193.05,384.02,193.05C384.02,193.05,576.014,193.05,576.014,193.05C594.029,193.05,609.197,199.226,621.517,211.545C633.836,223.865,640.012,239.033,640.012,257.048C640.012,257.048,640.012,385.044,640.012,385.044C640.012,385.044,640.012,384.98,640.012,384.98M704.01,1023.968C721.353,1023.968,736.009,1017.952,748.009,1005.953C748.009,1005.953,1004.993,748.969,1004.993,748.969C1017.664,736.297,1023.68,721.289,1023.008,703.978C1023.008,703.978,704.01,703.978,704.01,703.978C704.01,703.978,704.01,1023.968,704.01,1023.968C704.01,1023.968,704.01,1023.968,704.01,1023.968" /><glyph unicode="&#x0061;" d="M896,0C896,0,128,0,128,0C92.672,0,62.496,12.512,37.504,37.504C12.512,62.496,0,92.672,0,128C0,128,0,896,0,896C0,931.328,12.512,961.504,37.504,986.496C62.496,1011.488,92.672,1024,128,1024C128,1024,896,1024,896,1024C931.328,1024,961.504,1011.488,986.496,986.496C1011.488,961.504,1024,931.328,1024,896C1024,896,1024,128,1024,128C1024,92.672,1011.488,62.496,986.496,37.504C961.504,12.512,931.328,0,896,0C896,0,896,0,896,0M448,768C448,768,384,768,384,768C384,768,384,832,384,832C384,850.016,377.664,865.184,364.992,877.504C352.32,889.824,337.152,896,319.488,896C301.824,896,286.816,889.824,274.496,877.504C262.176,865.184,256,850.016,256,832C256,832,256,768,256,768C256,768,192,768,192,768C173.984,768,158.816,761.664,146.496,748.992C134.176,736.32,128,721.152,128,703.488C128,685.824,134.176,670.816,146.496,658.496C158.816,646.176,173.984,640,192,640C192,640,256,640,256,640C256,640,256,576,256,576C256,558.656,262.176,543.648,274.496,531.008C286.816,518.368,301.824,512.032,319.488,512C337.152,511.968,352.32,518.304,364.992,531.008C377.664,543.712,384,558.688,384,576C384,576,384,640,384,640C384,640,448,640,448,640C465.344,640,480.352,646.176,492.992,658.496C505.632,670.816,511.968,685.824,512,703.488C512.032,721.152,505.696,736.32,492.992,748.992C480.288,761.664,465.312,768,448,768C448,768,448,768,448,768M896,768C896,803.328,883.68,833.664,859.008,859.008C859.008,859.008,164.992,164.992,164.992,164.992C190.336,140.32,220.672,128,256,128C256,128,768,128,768,128C803.328,128,833.504,140.512,858.496,165.504C883.488,190.496,896,220.672,896,256C896,256,896,768,896,768C896,768,896,768,896,768M768,256C768,256,512,256,512,256C493.984,256,478.816,262.336,466.496,275.008C454.176,287.68,448,302.848,448,320.512C448,338.176,454.176,353.184,466.496,365.504C478.816,377.824,493.984,384,512,384C512,384,768,384,768,384C785.344,384,800.352,377.824,812.992,365.504C825.632,353.184,831.968,338.176,832,320.512C832.032,302.848,825.856,287.68,813.504,275.008C801.152,262.336,785.984,256,768,256C768,256,768,256,768,256" /><glyph unicode="&#x0062;" d="M510.164,129.5C429.112,129.5,352.396,146.112,279.984,179.337C207.573,212.561,146.64,258.412,97.154,316.858C47.668,375.303,15.273,440.413,0,512.155C15.273,583.897,47.668,649.006,97.154,707.452C146.64,765.898,207.573,811.748,279.984,844.973C352.396,878.197,429.112,894.81,510.164,894.81C591.216,894.81,667.932,878.197,740.343,844.973C812.755,811.748,873.687,765.898,923.173,707.452C972.659,649.006,1005.055,583.897,1020.328,512.155C1035.601,440.413,1003.237,375.303,923.173,316.858C843.11,258.412,782.177,212.561,740.343,179.337C698.51,146.112,621.794,129.5,510.164,129.5C510.164,129.5,510.164,129.5,510.164,129.5M265.062,715.391C213.248,692.147,169.725,662.908,134.524,627.707C99.323,592.506,75.727,553.988,63.77,512.123C75.727,469.62,99.482,430.752,135.002,395.55C170.522,360.349,213.854,331.11,265.03,307.866C215.863,366.981,191.28,435.056,191.28,512.123C191.28,589.19,215.863,656.946,265.03,715.391C265.03,715.391,265.062,715.391,265.062,715.391M510.164,639.664C474.963,639.664,444.895,627.197,419.992,602.294C395.09,577.392,382.623,547.324,382.623,512.123C382.623,476.922,395.09,446.854,419.992,421.951C444.895,397.049,474.963,384.582,510.164,384.582C545.365,384.582,575.433,397.049,600.335,421.951C625.238,446.854,637.705,476.922,637.705,512.123C637.705,547.324,625.238,577.392,600.335,602.294C575.433,627.197,545.365,639.664,510.164,639.664C510.164,639.664,510.164,639.664,510.164,639.664M755.298,715.391C804.465,656.946,829.048,589.19,829.048,512.123C829.048,435.056,804.465,366.981,755.298,307.866C807.111,331.11,850.634,360.349,885.836,395.55C921.037,430.752,944.632,469.62,956.589,512.123C944.632,553.988,921.037,592.665,885.836,628.217C850.634,663.769,807.111,692.817,755.298,715.391C755.298,715.391,755.298,715.391,755.298,715.391" /><glyph unicode="&#x0063;" d="M896,128C896,128,896,0,896,0C896,0,800,0,800,0C800,0,672,64,672,64C672,64,544,0,544,0C544,0,448,0,448,0C448,0,448,128,448,128C448,128,128,128,128,128C92.672,128,62.496,140.512,37.504,165.504C12.512,190.496,0,220.672,0,256C0,256,0,768,0,768C0,785.344,6.336,800.352,19.008,812.992C31.68,825.632,46.688,831.968,64,832C64,832,1024,832,1024,832C1024,832,1024,256,1024,256C1024,220.672,1011.488,190.496,986.496,165.504C961.504,140.512,931.328,128,896,128C896,128,896,128,896,128M748.992,404C748.992,404,672,576,672,576C672,576,595.008,404,595.008,404C595.008,404,416,380,416,380C416,380,548,249.984,548,249.984C548,249.984,513.984,63.968,513.984,63.968C513.984,63.968,672,155.968,672,155.968C672,155.968,830.016,63.968,830.016,63.968C830.016,63.968,796,249.984,796,249.984C796,249.984,928,380,928,380C928,380,748.992,404,748.992,404M590.016,916C594.688,928.672,604.032,939.168,618.016,947.488C632,955.808,646.688,959.968,662.016,960C662.016,960,902.016,960,902.016,960C918.016,960,933.024,955.84,947.008,947.488C960.992,939.136,970.656,928.64,976,916C976,916,1024,832,1024,832C1024,832,544,832,544,832C544,832,590.016,916,590.016,916M46.016,980C50.688,992.672,60.032,1003.168,74.016,1011.488C88,1019.808,102.688,1023.968,118.016,1024C118.016,1024,358.016,1024,358.016,1024C374.016,1024,389.024,1019.84,403.008,1011.488C416.992,1003.136,426.656,992.64,432,980C432,980,480,896,480,896C480,896,0,896,0,896C0,896,46.016,980,46.016,980" /><glyph unicode="&#x0064;" d="M896,0C896,0,128,0,128,0C110.656,0,95.648,6.176,83.008,18.496C70.368,30.816,64.032,45.984,64,64C64,64,64,959.008,64,959.008C64,977.024,70.336,992.192,83.008,1004.512C95.68,1016.832,110.688,1023.008,128,1023.008C128,1023.008,576,1023.008,576,1023.008C576,1023.008,576,671.008,576,671.008C576,662.336,579.168,654.848,585.504,648.512C591.84,642.176,599.328,639.008,608,639.008C608,639.008,960,639.008,960,639.008C960,639.008,960,64,960,64C960,45.984,953.824,30.816,941.504,18.496C929.184,6.176,914.016,0,896,0C896,0,896,0,896,0M460.992,404C460.992,404,384,576,384,576C384,576,307.008,404,307.008,404C307.008,404,128,380,128,380C128,380,260,249.984,260,249.984C260,249.984,225.984,63.968,225.984,63.968C225.984,63.968,384,154.976,384,154.976C384,154.976,542.016,63.968,542.016,63.968C542.016,63.968,508,249.984,508,249.984C508,249.984,640,380,640,380C640,380,460.992,404,460.992,404M640,1024C657.344,1024,672,1017.984,684,1005.984C684,1005.984,940.992,748.992,940.992,748.992C953.664,736.32,960,720.992,960,702.976C960,702.976,640,702.976,640,702.976C640,702.976,640,1023.968,640,1023.968C640,1023.968,640,1024,640,1024" /><glyph unicode="&#x0065;" d="M962.936,268.651C991.571,226.689,1010.394,185.24,1019.375,144.301C1028.355,103.362,1025.542,69.231,1010.874,41.939C996.205,14.646,970.255,1,932.959,1C932.959,1,92.041,1,92.041,1C54.745,1,28.795,14.646,14.126,41.939C-0.542,69.231,-3.355,103.362,5.625,144.301C14.606,185.24,33.429,226.689,62.064,268.651C62.064,268.651,320.734,596.223,320.734,596.223C320.734,596.223,320.734,895.832,320.734,895.832C320.734,895.832,256.818,895.832,256.818,895.832C239.496,895.832,224.508,902,211.884,914.304C199.261,926.608,192.933,941.597,192.901,959.238C192.869,976.879,199.197,992.027,211.884,1004.682C224.572,1017.338,239.528,1023.665,256.818,1023.665C256.818,1023.665,768.15,1023.665,768.15,1023.665C785.472,1023.665,800.46,1017.338,813.084,1004.682C825.707,992.027,832.035,976.879,832.067,959.238C832.099,941.597,825.771,926.608,813.084,914.304C800.396,902,785.44,895.832,768.15,895.832C768.15,895.832,704.234,895.832,704.234,895.832C704.234,895.832,704.234,596.223,704.234,596.223C704.234,596.223,962.936,268.651,962.936,268.651M576.433,576.249C576.433,576.249,576.433,895.832,576.433,895.832C576.433,895.832,448.599,895.832,448.599,895.832C448.599,895.832,448.599,576.249,448.599,576.249C448.599,576.249,205.908,264.656,205.908,264.656C184.592,242.701,169.795,221.544,161.454,201.251C153.113,180.957,154.295,163.796,164.938,149.83C175.58,135.864,196.896,128.865,228.854,128.865C228.854,128.865,796.114,128.865,796.114,128.865C827.401,128.865,848.557,135.864,859.519,149.83C870.481,163.796,871.823,180.957,863.514,201.251C855.205,221.544,840.057,242.701,818.069,264.656C818.069,264.656,576.433,576.249,576.433,576.249" /><glyph unicode="&#x0066;" d="M960,576.5C960,576.5,384,256.5,384,256.5C365.984,256.5,350.816,262.676,338.496,274.996C326.176,287.316,320,302.484,320,320.5C320,320.5,320,959.508,320,959.508C320,977.524,326.176,992.692,338.496,1005.012C350.816,1017.332,365.984,1023.508,384,1023.508C384,1023.508,960,704.5,960,704.5C961.344,703.828,963.008,702.836,964.992,701.492C974.336,697.492,981.504,693.972,986.496,690.996C991.488,688.02,997.312,684.02,1004,678.996C1010.688,673.972,1015.68,668.148,1019.008,661.492C1022.336,654.836,1024,647.828,1024,640.5C1024,631.828,1022.336,624.18,1019.008,617.492C1015.68,610.804,1010.336,604.82,1003.008,599.476C995.68,594.132,989.184,589.972,983.52,586.964C977.856,583.956,970.048,580.468,960.032,576.468C960.032,576.468,960,576.5,960,576.5M384,63.988C384,46.324,377.824,31.316,365.504,18.996C353.184,6.676,338.016,0.5,320,0.5C320,0.5,64,0.5,64,0.5C45.984,0.5,30.816,6.676,18.496,18.996C6.176,31.316,0,46.324,0,63.988C0,81.652,6.176,96.82,18.496,109.492C30.816,122.164,45.984,128.5,64,128.5C64,128.5,128,128.5,128,128.5C128,128.5,128,959.508,128,959.508C128,977.524,134.176,992.692,146.496,1005.012C158.816,1017.332,173.984,1023.508,192,1023.508C210.016,1023.508,225.184,1017.332,237.504,1005.012C249.824,992.692,256,977.524,256,959.508C256,959.508,256,128.5,256,128.5C256,128.5,320,128.5,320,128.5C338.016,128.5,353.184,122.164,365.504,109.492C377.824,96.82,384,81.652,384,63.988C384,63.988,384,63.988,384,63.988" /><glyph unicode="&#x0067;" d="M1024,959.508C1024,959.508,768,704.5,768,704.5C768,704.5,1024,448.5,1024,448.5C1024,430.484,1017.664,415.316,1004.992,402.996C992.32,390.676,977.312,384.5,960,384.5C960,384.5,960,384.5,960,384.5C960,384.5,384,384.5,384,384.5C365.984,384.5,350.816,390.676,338.496,402.996C326.176,415.316,320,430.484,320,448.5C320,448.5,320,960.5,320,960.5C320,977.844,326.176,992.692,338.496,1005.012C350.816,1017.332,365.984,1023.508,384,1023.508C384,1023.508,960,1023.508,960,1023.508C977.344,1023.508,992.352,1017.332,1004.992,1005.012C1017.632,992.692,1023.968,977.844,1024,960.5C1024,960.5,1024,959.508,1024,959.508C1024,959.508,1024,959.508,1024,959.508M384,63.988C384,46.324,377.824,31.316,365.504,18.996C353.184,6.676,338.016,0.5,320,0.5C320,0.5,64,0.5,64,0.5C45.984,0.5,30.816,6.676,18.496,18.996C6.176,31.316,0,46.324,0,63.988C0,81.652,6.176,96.82,18.496,109.492C30.816,122.164,45.984,128.5,64,128.5C64,128.5,128,128.5,128,128.5C128,128.5,128,960.5,128,960.5C128,977.844,134.336,992.692,147.008,1005.012C159.68,1017.332,174.848,1023.508,192.512,1023.508C210.176,1023.508,225.184,1017.332,237.504,1005.012C249.824,992.692,256,977.844,256,960.5C256,960.5,256,128.5,256,128.5C256,128.5,320,128.5,320,128.5C338.016,128.5,353.184,122.164,365.504,109.492C377.824,96.82,384,81.652,384,63.988C384,63.988,384,63.988,384,63.988" /><glyph unicode="&#x0068;" d="M1005.493,139.004C1005.493,139.004,885.496,19.007,885.496,19.007C872.825,6.336,857.497,0,839.482,0C821.466,0,806.139,6.336,793.467,19.007C793.467,19.007,365.481,447.986,365.481,447.986C365.481,447.986,192.494,447.986,192.494,447.986C175.151,447.986,160.143,454.162,147.503,466.481C134.864,478.801,128.528,493.969,128.496,511.984C128.496,511.984,512.484,894.98,512.484,894.98C530.499,894.98,545.667,888.804,557.987,876.485C570.306,864.165,576.482,849.317,576.482,831.974C576.482,831.974,576.482,658.987,576.482,658.987C576.482,658.987,1005.461,231.001,1005.461,231.001C1018.132,218.329,1024.468,203.002,1024.468,184.986C1024.468,166.971,1018.132,151.643,1005.461,138.972C1005.461,138.972,1005.493,139.004,1005.493,139.004M750.525,360.981C750.525,360.981,617.537,493.969,617.537,493.969C605.537,505.968,591.042,511.984,574.05,511.984C557.059,511.984,542.563,505.968,530.563,493.969C518.564,481.969,512.548,467.473,512.548,450.482C512.548,433.49,518.564,418.995,530.563,406.995C530.563,406.995,663.551,274.007,663.551,274.007C675.551,262.008,690.046,255.992,707.038,255.992C724.029,255.992,738.525,262.008,750.525,274.007C762.524,286.007,768.54,300.503,768.54,317.494C768.54,334.486,762.524,348.981,750.525,360.981C750.525,360.981,750.525,360.981,750.525,360.981M88.529,590.99C78.514,580.974,66.354,575.982,52.018,575.982C37.683,575.982,25.523,580.974,15.508,590.99C5.492,601.005,0.5,613.005,0.5,626.988C0.5,640.972,5.492,652.972,15.508,662.987C15.508,662.987,361.513,1008.992,361.513,1008.992C371.528,1019.008,383.528,1024,397.512,1024C411.495,1024,423.495,1019.008,433.51,1008.992C443.526,998.977,448.518,986.817,448.518,972.482C448.518,958.146,443.526,945.986,433.51,935.971C433.51,935.971,88.529,590.99,88.529,590.99" /><glyph unicode="&#x0069;" d="M955.5,747.008C934.828,693.664,920.492,636,912.492,574.016C901.836,490.016,896.492,426.656,896.492,384C896.492,384,896.492,352,896.492,352C896.492,322.016,891.98,289.504,882.988,254.496C873.996,219.488,863.308,187.488,850.988,158.496C838.668,129.504,826.156,102.656,813.484,77.984C800.812,53.312,790.156,34.304,781.484,20.992C781.484,20.992,768.492,0,768.492,0C768.492,0,384.492,0,384.492,0C380.492,3.328,375.66,8,369.996,14.016C364.332,20.032,354.188,31.52,339.5,48.512C324.812,65.504,311.82,81.664,300.492,97.024C289.164,112.384,278.988,129.056,269.996,147.04C261.004,165.024,256.492,180.032,256.492,192.032C256.492,217.376,241.996,258.048,213.004,314.048C184.012,370.048,154.86,419.712,125.516,463.04C125.516,463.04,82.508,528.032,82.508,528.032C69.836,540.704,63.5,556.192,63.5,574.528C63.5,592.864,69.836,608.512,82.508,621.536C95.18,634.56,110.348,641.056,128.012,641.024C145.676,640.992,160.844,634.336,173.516,621.024C175.532,619.008,177.868,615.84,180.524,611.52C183.18,607.2,188.684,599.008,197.036,587.008C205.388,575.008,213.548,563.648,221.548,552.992C229.548,542.336,238.892,530.336,249.548,516.992C260.204,503.648,269.708,492.16,278.06,482.496C286.412,472.832,294.412,464.672,302.06,457.984C309.708,451.296,315.884,447.968,320.556,447.968C319.212,469.312,319.212,479.968,320.556,479.968C320.556,479.968,256.556,884.96,256.556,884.96C253.9,902.304,257.388,918.304,267.052,932.96C276.716,947.616,289.548,956.288,305.548,958.976C321.548,961.664,336.044,957.824,349.036,947.488C362.028,937.152,369.868,922.976,372.524,904.992C372.524,904.992,412.524,668,412.524,668C436.524,592.672,448.524,583.328,448.524,640C448.524,640,448.524,960,448.524,960C448.524,977.344,454.7,992.352,467.02,1004.992C479.34,1017.632,494.348,1023.968,512.012,1024C529.676,1024.032,544.844,1017.696,557.516,1004.992C570.188,992.288,576.524,977.312,576.524,960C576.524,960,576.524,576,576.524,576C581.196,577.344,586.028,580.832,591.02,586.496C596.012,592.16,599.5,599.328,601.516,608C601.516,608,651.532,904.992,651.532,904.992C654.188,923.008,662.188,937.152,675.532,947.488C688.876,957.824,703.532,961.632,719.532,958.976C735.532,956.32,748.204,947.648,757.548,932.96C766.892,918.272,770.22,902.272,767.564,884.96C765.548,874.304,762.732,860.448,759.052,843.456C755.372,826.464,750.7,796.288,745.036,752.96C739.372,709.632,736.524,671.968,736.524,639.968C736.524,618.624,739.18,597.312,744.524,575.968C749.868,554.624,755.18,538.624,760.524,527.968C760.524,527.968,768.524,511.968,768.524,511.968C771.18,518.656,775.18,525.984,780.524,533.984C780.524,533.984,844.524,790.976,844.524,790.976C850.508,807.648,861.196,819.648,876.524,826.976C891.852,834.304,907.212,834.976,922.54,828.992C937.868,823.008,948.876,812,955.532,796C962.188,780,962.188,763.68,955.532,747.008C955.532,747.008,955.5,747.008,955.5,747.008" /><glyph unicode="&#x006a;" d="M1004.541,468.261C991.555,455.275,975.883,448.782,957.555,448.782C939.228,448.782,923.715,455.115,911.081,467.781C911.081,467.781,896.08,482.782,896.08,482.782C896.08,482.782,896.08,63.97,896.08,63.97C896.08,46.634,889.907,31.633,877.593,18.999C865.279,6.365,850.118,0.032,832.11,0C832.11,0,192.41,0,192.41,0C174.402,0,159.242,6.333,146.927,18.999C134.613,31.665,128.44,46.666,128.44,63.97C128.44,63.97,128.44,482.782,128.44,482.782C128.44,482.782,113.439,467.781,113.439,467.781C100.773,455.115,85.292,448.782,66.965,448.782C48.637,448.782,32.997,455.275,19.979,468.261C6.961,481.246,0.468,496.919,0.5,515.246C0.532,533.574,6.865,549.087,19.499,561.721C19.499,561.721,463.291,1005.513,463.291,1005.513C473.942,1016.164,486.768,1022.337,501.769,1024C516.77,1025.663,530.588,1022.497,543.254,1014.5C548.595,1014.5,554.576,1011.494,561.261,1005.513C561.261,1005.513,1005.053,561.721,1005.053,561.721C1017.719,549.055,1024.052,533.574,1024.052,515.246C1024.052,496.919,1017.559,481.278,1004.573,468.261C1004.573,468.261,1004.541,468.261,1004.541,468.261M768.14,610.69C768.14,610.69,512.26,866.57,512.26,866.57C512.26,866.57,256.38,610.69,256.38,610.69C256.38,610.69,256.38,127.908,256.38,127.908C256.38,127.908,768.14,127.908,768.14,127.908C768.14,127.908,768.14,610.69,768.14,610.69C768.14,610.69,768.14,610.69,768.14,610.69" /><glyph unicode="&#x006b;" d="M128,0C128,0,128,896,128,896C128,896,1024,896,1024,896C1024,896,1024,0,1024,0C1024,0,128,0,128,0C128,0,128,0,128,0M960,832C960,832,192,832,192,832C192,832,192,192,192,192C192,192,960,192,960,192C960,192,960,832,960,832C960,832,960,832,960,832M384,768C419.328,768,449.504,755.488,474.496,730.496C499.488,705.504,512,675.328,512,640C512,604.672,499.488,574.496,474.496,549.504C449.504,524.512,419.328,512,384,512C348.672,512,318.656,524.512,293.984,549.504C269.312,574.496,256.64,604.672,255.968,640C255.968,640,255.968,640.992,255.968,640.992C256.64,676.32,269.312,706.336,293.984,731.008C318.656,755.68,348.672,768.032,384,768C384,768,384,768,384,768M431.008,431.008C431.008,431.008,605.024,256,605.024,256C605.024,256,256.032,256,256.032,256C256.032,256,256.032,348.992,256.032,348.992C256.032,348.992,338.048,431.008,338.048,431.008C350.048,443.008,365.568,449.024,384.544,449.024C403.52,449.024,419.04,443.008,431.04,431.008C431.04,431.008,431.008,431.008,431.008,431.008M690.016,559.008C702.016,571.008,717.536,577.024,736.512,577.024C755.488,577.024,771.008,571.008,783.008,559.008C783.008,559.008,896,446.016,896,446.016C896,446.016,896,256,896,256C896,256,695.008,256,695.008,256C695.008,256,542.016,408.992,542.016,408.992C542.016,408.992,690.016,559.008,690.016,559.008M64,128C64,128,0,128,0,128C0,128,0,1024,0,1024C0,1024,896,1024,896,1024C896,1024,896,960,896,960C896,960,64,960,64,960C64,960,64,128,64,128C64,128,64,128,64,128" /><glyph unicode="&#x006c;" d="M512,0C442.656,0,376.32,13.504,312.992,40.512C249.664,67.52,195.168,103.84,149.504,149.504C103.84,195.168,67.52,249.664,40.512,312.992C13.504,376.32,0,442.656,0,512C0,581.344,13.504,647.68,40.512,711.008C67.52,774.336,103.84,828.832,149.504,874.496C195.168,920.16,249.664,956.48,312.992,983.488C376.32,1010.496,442.656,1024,512,1024C581.344,1024,647.68,1010.496,711.008,983.488C774.336,956.48,828.832,920.16,874.496,874.496C920.16,828.832,956.48,774.336,983.488,711.008C1010.496,647.68,1024,581.344,1024,512C1024,442.656,1010.496,376.32,983.488,312.992C956.48,249.664,920.16,195.168,874.496,149.504C828.832,103.84,774.336,67.52,711.008,40.512C647.68,13.504,581.344,0,512,0C512,0,512,0,512,0M544,896C517.344,896,494.656,886.656,476,868C457.344,849.344,448,826.848,448,800.512C448,774.176,457.344,751.52,476,732.512C494.656,713.504,517.344,704,544,704C570.656,704,593.344,713.504,612,732.512C630.656,751.52,640,774.176,640,800.512C640,826.848,630.656,849.344,612,868C593.344,886.656,570.656,896,544,896C544,896,544,896,544,896M672.992,365.984C632.992,323.968,603.648,296.8,584.992,284.48C566.336,272.16,548,265.984,529.984,265.984C519.968,265.984,511.488,270.496,504.48,279.488C497.472,288.48,493.984,300,493.984,313.984C493.984,342.656,521.312,451.328,576,640C576,640,420.992,668.992,420.992,668.992C353.664,503.008,320,372.992,320,278.976C320,235.648,330.336,199.648,351.008,170.976C371.68,142.304,397.024,127.968,427.008,127.968C480.992,127.968,563.008,181.984,673.024,289.984C673.024,289.984,673.024,365.984,673.024,365.984C673.024,365.984,672.992,365.984,672.992,365.984" /><glyph unicode="&#x006d;" d="M1003.528,20.034C990.869,7.374,975.875,0.725,958.58,0.053C941.285,-0.618,926.611,5.041,914.622,17.029C914.622,17.029,721.817,210.857,721.817,210.857C709.829,222.846,704.17,237.519,704.842,254.815C705.513,272.11,712.195,287.103,724.822,299.763C737.45,312.423,752.444,319.072,769.771,319.744C787.098,320.415,801.74,314.756,813.728,302.768C813.728,302.768,1006.533,108.94,1006.533,108.94C1018.522,96.951,1024.18,82.278,1023.509,64.982C1022.838,47.687,1016.156,32.694,1003.528,20.034C1003.528,20.034,1003.528,20.034,1003.528,20.034M575.943,767.31C575.943,767.31,575.943,539.531,575.943,539.531C575.943,539.531,383.137,733.359,383.137,733.359C383.137,733.359,416.097,766.319,416.097,766.319C416.097,766.319,327.192,778.307,327.192,778.307C327.192,778.307,302.224,831.248,302.224,831.248C302.224,831.248,512.036,831.248,512.036,831.248C530.035,831.248,545.188,825.078,557.496,812.77C569.804,800.462,575.975,785.309,575.975,767.31C575.975,767.31,575.943,767.31,575.943,767.31M256.252,831.248C256.252,831.248,274.251,831.248,274.251,831.248C274.251,831.248,250.274,778.307,250.274,778.307C250.274,778.307,192.314,770.315,192.314,770.315C192.986,787.642,199.475,802.124,211.783,813.761C224.091,825.398,238.925,831.216,256.252,831.248C256.252,831.248,256.252,831.248,256.252,831.248M256.252,447.62C238.925,447.62,223.932,453.95,211.304,466.609C198.676,479.269,192.346,494.263,192.314,511.558C192.314,511.558,192.314,734.35,192.314,734.35C192.314,734.35,226.297,701.39,226.297,701.39C226.297,701.39,209.322,607.465,209.322,607.465C209.322,607.465,282.243,650.431,282.243,650.431C282.243,650.431,484.064,447.62,484.064,447.62C484.064,447.62,256.284,447.62,256.284,447.62C256.284,447.62,256.252,447.62,256.252,447.62M639.881,831.248C639.881,849.247,633.711,864.56,621.403,877.22C609.094,889.879,593.941,896.209,575.943,896.209C575.943,896.209,192.314,896.209,192.314,896.209C174.987,896.209,159.993,889.879,147.366,877.22C134.738,864.56,128.408,849.247,128.376,831.248C128.376,831.248,128.376,447.62,128.376,447.62C128.376,430.293,134.706,415.299,147.366,402.671C160.025,390.044,175.019,383.714,192.314,383.682C192.314,383.682,547.97,383.682,547.97,383.682C547.97,383.682,675.846,255.806,675.846,255.806C675.846,255.806,64.438,255.806,64.438,255.806C47.111,255.806,32.117,262.135,19.49,274.795C6.862,287.455,0.532,302.448,0.5,319.744C0.5,319.744,0.5,960.115,0.5,960.115C0.5,977.443,6.83,992.436,19.49,1005.064C32.149,1017.692,47.143,1024.021,64.438,1024.053C64.438,1024.053,703.819,1024.053,703.819,1024.053C721.817,1024.053,736.971,1017.723,749.279,1005.064C761.587,992.404,767.757,977.411,767.757,960.115C767.757,960.115,767.757,347.717,767.757,347.717C767.757,347.717,639.881,475.593,639.881,475.593C639.881,475.593,639.881,831.248,639.881,831.248C639.881,831.248,639.881,831.248,639.881,831.248" /><glyph unicode="&#x006e;" d="M767.984,188.456C767.984,188.456,767.984,354.462,767.984,354.462C807.982,387.132,839.308,425.465,861.994,469.463C884.681,513.46,896.008,559.793,896.008,608.462C896.008,691.785,865.674,766.628,805.006,832.96C744.337,899.292,668.022,941.785,576.028,960.44C576.028,960.44,576.028,1024.436,576.028,1024.436C659.351,1015.093,735.186,989.59,803.502,947.929C871.818,906.267,925.67,852.607,964.996,786.947C1004.321,721.287,1024,651.115,1024,576.464C1024,495.125,1000.833,420.122,954.5,351.486C908.167,282.85,845.995,228.518,768.016,188.488C768.016,188.488,767.984,188.456,767.984,188.456M480.002,256.452C453.348,256.452,430.661,265.795,412.006,284.45C393.351,303.105,384.008,325.792,384.008,352.446C384.008,352.446,384.008,736.422,384.008,736.422C384.008,745.093,387.176,752.581,393.511,758.917C399.847,765.252,407.335,768.42,416.006,768.42C416.006,768.42,480.002,768.42,480.002,768.42C488.673,768.42,496.161,765.252,502.497,758.917C508.832,752.581,512,745.093,512,736.422C512,736.422,512,288.45,512,288.45C512,279.779,508.832,272.291,502.497,265.955C496.161,259.62,488.673,256.452,480.002,256.452C480.002,256.452,480.002,256.452,480.002,256.452M480.002,896.412C480.002,896.412,416.006,896.412,416.006,896.412C407.335,896.412,399.847,899.58,393.511,905.915C387.176,912.251,384.008,919.739,384.008,928.41C384.008,928.41,384.008,992.406,384.008,992.406C384.008,1001.077,387.176,1008.565,393.511,1014.901C399.847,1021.236,407.335,1024.404,416.006,1024.404C416.006,1024.404,480.002,1024.404,480.002,1024.404C488.673,1024.404,496.161,1021.236,502.497,1014.901C508.832,1008.565,512,1001.077,512,992.406C512,992.406,512,928.41,512,928.41C512,919.739,508.832,912.251,502.497,905.915C496.161,899.58,488.673,896.412,480.002,896.412C480.002,896.412,480.002,896.412,480.002,896.412M64.028,544.434C64.028,469.111,82.523,399.451,119.513,335.455C156.502,271.459,206.995,220.966,270.991,183.977C334.987,146.987,404.647,128.492,479.97,128.492C560.637,128.492,635.288,150.507,703.956,194.504C703.956,194.504,703.956,38.514,703.956,38.514C641.976,13.171,577.98,0.5,511.968,0.5C419.302,0.5,333.643,23.347,254.992,69.008C176.341,114.669,114.169,176.841,68.508,255.492C22.847,334.143,0,419.802,0,512.468C0,607.15,24.158,694.313,72.507,773.956C120.856,853.599,185.012,915.771,265.007,960.44C265.007,960.44,320.012,960.44,320.012,960.44C320.012,960.44,320.012,896.444,320.012,896.444C240.689,863.774,178.197,817.793,132.536,758.437C86.875,699.08,64.06,627.757,64.028,544.434C64.028,544.434,64.028,544.434,64.028,544.434" /><glyph unicode="&#x006f;" d="M955.478,172.495C955.478,172.495,852.473,69.49,852.473,69.49C806.491,23.507,750.813,0.5,685.471,0.5C620.129,0.5,564.29,23.507,517.988,69.49C471.685,115.472,448.518,171.151,448.486,236.493C448.454,301.835,471.461,357.513,517.476,403.495C517.476,403.495,555.491,441.51,555.491,441.51C555.491,441.51,384.488,613.505,384.488,613.505C384.488,613.505,301.483,530.499,301.483,530.499C289.483,518.5,274.795,512.836,257.484,513.508C240.173,514.18,225.165,520.868,212.493,533.507C199.822,546.147,193.166,561.154,192.494,578.498C191.822,595.841,197.486,610.497,209.485,622.497C209.485,622.497,292.491,704.51,292.491,704.51C292.491,704.51,191.502,805.499,191.502,805.499C191.502,805.499,109.489,722.493,109.489,722.493C97.489,710.494,82.801,704.83,65.49,705.502C48.179,706.174,33.171,712.862,20.499,725.501C7.828,738.141,1.172,753.148,0.5,770.492C-0.172,787.835,5.492,802.491,17.491,814.491C17.491,814.491,99.505,896.504,99.505,896.504C99.505,896.504,80.498,915.511,80.498,915.511C69.17,927.511,63.666,942.199,63.986,959.51C64.306,976.821,70.802,991.829,83.473,1004.501C96.145,1017.172,111.313,1023.828,128.976,1024.5C146.639,1025.172,161.135,1019.508,172.463,1007.509C172.463,1007.509,650.464,530.531,650.464,530.531C696.446,564.546,748.445,579.362,806.459,575.042C864.473,570.722,914.135,547.875,955.446,506.532C1001.429,460.55,1024.436,404.871,1024.436,339.529C1024.436,274.187,1001.429,218.509,955.446,172.527C955.446,172.527,955.478,172.495,955.478,172.495M864.473,415.495C842.49,437.478,815.995,448.486,784.987,448.486C753.98,448.486,727.485,437.478,705.502,415.495C705.502,415.495,609.505,319.498,609.505,319.498C587.522,297.515,576.514,271.02,576.514,240.013C576.514,209.005,587.522,182.51,609.505,160.527C631.488,138.544,658.175,127.536,689.502,127.536C720.829,127.536,747.517,138.544,769.5,160.527C769.5,160.527,864.505,255.532,864.505,255.532C886.488,277.515,897.496,304.203,897.496,335.53C897.496,366.857,886.488,393.544,864.505,415.527C864.505,415.527,864.473,415.495,864.473,415.495" /><glyph unicode="&#x0070;" d="M960.002,192C960.002,192,320.022,192,320.022,192C320.022,192,320.022,192.992,320.022,192.992C303.351,192.32,289.015,197.984,277.015,209.983C277.015,209.983,18.015,468.983,18.015,468.983C6.016,480.983,0,495.479,0,512.47C0,529.461,6.016,543.605,18.015,554.965C18.015,554.965,277.015,813.965,277.015,813.965C290.359,827.308,306.358,833.292,325.014,831.98C325.014,831.98,960.002,831.98,960.002,831.98C978.017,831.98,993.185,825.644,1005.505,812.973C1017.824,800.301,1024,785.293,1024,767.982C1024,767.982,1024,255.998,1024,255.998C1024,237.983,1017.824,222.815,1005.505,210.495C993.185,198.176,978.017,192,960.002,192C960.002,192,960.002,192,960.002,192M883.012,631.986C891.012,640.658,895.012,650.642,895.012,662.001C895.012,673.361,891.012,683.185,883.012,691.504C875.013,699.824,865.189,703.984,853.509,704.016C841.83,704.048,832.006,699.696,824.006,691.024C824.006,691.024,704.01,571.028,704.01,571.028C704.01,571.028,584.014,691.024,584.014,691.024C575.342,699.696,565.358,704.016,553.999,704.016C542.639,704.016,532.815,699.856,524.496,691.504C516.176,683.153,512.016,673.329,511.984,662.001C511.952,650.674,516.304,640.658,524.976,631.986C524.976,631.986,644.972,511.99,644.972,511.99C644.972,511.99,524.976,391.994,524.976,391.994C516.304,383.322,511.984,373.338,511.984,361.979C511.984,350.619,516.144,340.955,524.496,332.988C532.847,325.02,542.671,321.02,553.999,320.988C565.326,320.956,575.342,324.956,584.014,332.988C584.014,332.988,704.01,452.984,704.01,452.984C704.01,452.984,824.006,332.988,824.006,332.988C832.006,324.988,841.83,320.988,853.509,320.988C865.189,320.988,875.013,324.988,883.012,332.988C891.012,340.987,895.012,350.651,895.012,361.979C895.012,373.306,891.012,383.322,883.012,391.994C883.012,391.994,763.016,511.99,763.016,511.99C763.016,511.99,883.012,631.986,883.012,631.986" /><glyph unicode="&#x0071;" d="M984.933,464.91C984.933,464.91,606.964,276.934,606.964,276.934C580.311,263.591,548.635,256.936,511.968,256.936C475.301,256.936,443.625,263.591,416.972,276.934C416.972,276.934,39.003,464.91,39.003,464.91C12.99,478.252,0,494.058,0,512.392C0,530.726,12.99,546.532,39.003,559.874C39.003,559.874,73.015,576.864,73.015,576.864C73.015,576.864,416.972,403.894,416.972,403.894C443.625,391.223,475.301,384.888,511.968,384.888C548.635,384.888,580.311,391.223,606.964,403.894C606.964,403.894,950.921,576.864,950.921,576.864C950.921,576.864,984.933,559.874,984.933,559.874C1010.946,546.532,1023.936,530.726,1023.936,512.392C1023.936,494.058,1010.946,478.252,984.933,464.91C984.933,464.91,984.933,464.91,984.933,464.91M984.933,720.878C984.933,720.878,606.964,531.91,606.964,531.91C580.311,519.239,548.635,512.904,511.968,512.904C475.301,512.904,443.625,519.239,416.972,531.91C416.972,531.91,39.003,720.878,39.003,720.878C12.99,734.22,0,750.026,0,768.36C0,786.694,12.99,802.5,39.003,815.842C39.003,815.842,416.972,1004.811,416.972,1004.811C443.625,1017.481,475.301,1023.816,511.968,1023.816C548.635,1023.816,580.311,1017.481,606.964,1004.811C606.964,1004.811,984.933,815.842,984.933,815.842C1010.946,802.5,1023.936,786.694,1023.936,768.36C1023.936,750.026,1010.946,734.22,984.933,720.878C984.933,720.878,984.933,720.878,984.933,720.878M39.067,303.938C39.067,303.938,73.079,320.928,73.079,320.928C73.079,320.928,417.036,148.95,417.036,148.95C443.689,135.607,475.365,128.952,512.032,128.952C548.699,128.952,580.375,135.607,607.028,148.95C607.028,148.95,950.985,320.928,950.985,320.928C950.985,320.928,984.997,303.938,984.997,303.938C1011.01,290.596,1024,274.79,1024,256.456C1024,238.122,1011.01,222.316,984.997,208.974C984.997,208.974,607.028,20.998,607.028,20.998C580.375,7.655,548.699,1,512.032,1C475.365,1,443.689,7.655,417.036,20.998C417.036,20.998,39.067,208.974,39.067,208.974C13.054,222.316,0.064,238.122,0.064,256.456C0.064,274.79,13.054,290.596,39.067,303.938C39.067,303.938,39.067,303.938,39.067,303.938" /><glyph unicode="&#x0072;" d="M1024,0C1024,0,620,404,620,404C620,404,384,256,384,256C384,256,0,768,0,768C0,768,320,1024,320,1024C320,1024,552,584,552,584C552,584,768,704,768,704C768,704,1024,0,1024,0" /><glyph unicode="&#x0073;" d="M767.982,512.976C725.967,468.305,694.16,427.795,672.497,391.476C650.834,355.157,640.018,320.662,639.986,287.991C639.986,287.991,639.986,287.991,639.986,287.991C639.986,279.319,636.818,271.832,630.482,265.496C624.146,259.16,616.659,255.992,607.987,255.992C607.987,255.992,415.993,255.992,415.993,255.992C407.321,255.992,399.834,259.16,393.498,265.496C387.162,271.832,383.994,279.319,383.994,287.991C383.994,287.991,383.994,287.991,383.994,287.991C383.994,320.662,373.146,355.157,351.483,391.476C329.82,427.795,297.981,468.305,255.998,512.976C213.343,569.646,192,633.292,192,703.978C192,761.992,206.336,815.495,235.007,864.485C263.678,913.475,302.525,952.322,351.515,980.993C400.505,1009.664,454.008,1024,512.022,1024C570.036,1024,623.539,1009.664,672.529,980.993C721.519,952.322,760.366,913.475,789.037,864.485C817.708,815.495,832.044,761.992,832.044,703.978C832.044,633.292,810.701,569.646,768.046,512.976C768.046,512.976,767.982,512.976,767.982,512.976M415.993,191.994C415.993,191.994,607.987,191.994,607.987,191.994C616.659,191.994,624.146,188.826,630.482,182.49C636.818,176.154,639.986,168.667,639.986,159.995C639.986,151.323,636.818,143.836,630.482,137.5C624.146,131.164,616.659,127.996,607.987,127.996C607.987,127.996,415.993,127.996,415.993,127.996C407.321,127.996,399.834,131.164,393.498,137.5C387.162,143.836,383.994,151.323,383.994,159.995C383.994,168.667,387.162,176.154,393.498,182.49C399.834,188.826,407.321,191.994,415.993,191.994C415.993,191.994,415.993,191.994,415.993,191.994M511.99,0C476.663,0,446.488,6.336,421.497,19.007C396.506,31.679,383.994,46.687,383.994,63.998C383.994,63.998,639.986,63.998,639.986,63.998C639.986,46.655,627.474,31.647,602.483,19.007C577.492,6.368,547.317,0.032,511.99,0C511.99,0,511.99,0,511.99,0" /><glyph unicode="&#x0074;" d="M989.429,203.994C989.429,203.994,820.442,35.007,820.442,35.007C797.755,11.68,769.948,0,736.957,0C703.966,0,675.807,11.68,652.448,35.007C652.448,35.007,483.461,203.994,483.461,203.994C462.118,225.337,450.79,251.16,449.446,281.495C448.102,311.83,456.774,338.677,475.461,362.005C475.461,362.005,689.47,147.003,689.47,147.003C702.814,134.332,718.622,127.996,736.957,127.996C755.292,127.996,770.78,134.332,783.452,147.003C783.452,147.003,877.465,241.016,877.465,241.016C890.136,253.688,896.472,269.176,896.472,287.511C896.472,305.846,890.136,321.654,877.465,334.998C877.465,334.998,662.463,549.007,662.463,549.007C685.791,567.662,712.638,576.334,742.973,575.022C773.308,573.71,799.131,562.35,820.474,541.007C820.474,541.007,989.461,372.02,989.461,372.02C1012.788,348.693,1024.468,320.502,1024.468,287.511C1024.468,254.52,1012.788,226.681,989.461,204.026C989.461,204.026,989.429,203.994,989.429,203.994M341.449,682.987C354.121,695.658,369.128,702.314,386.44,702.986C403.751,703.658,418.439,697.994,430.439,685.995C430.439,685.995,687.423,427.987,687.423,427.987C699.422,416.659,705.086,402.163,704.414,384.5C703.742,366.837,697.054,351.669,684.415,338.997C671.775,326.326,656.767,319.83,639.424,319.51C622.081,319.19,607.425,324.694,595.425,336.021C595.425,336.021,338.441,594.029,338.441,594.029C326.442,606.029,320.778,620.717,321.45,638.028C322.122,655.34,328.81,670.347,341.449,683.019C341.449,683.019,341.449,682.987,341.449,682.987M335.466,875.973C322.794,889.316,307.306,895.972,288.971,895.972C270.636,895.972,254.828,889.316,241.484,875.973C241.484,875.973,148.495,782.984,148.495,782.984C135.152,769.64,128.496,753.832,128.496,735.497C128.496,717.162,135.152,701.674,148.495,689.002C148.495,689.002,362.505,474.993,362.505,474.993C339.177,456.338,312.33,447.666,281.995,448.978C251.66,450.29,225.837,461.65,204.494,482.993C204.494,482.993,35.507,651.98,35.507,651.98C12.18,675.307,0.5,703.498,0.5,736.489C0.5,769.48,12.18,797.671,35.507,820.998C35.507,820.998,204.494,988.993,204.494,988.993C227.181,1012.32,254.988,1024,287.979,1024C320.97,1024,349.129,1012.32,372.488,988.993C372.488,988.993,541.475,820.998,541.475,820.998C562.818,799.015,574.146,772.84,575.49,742.505C576.834,712.17,568.162,685.323,549.475,661.995C549.475,661.995,335.466,875.973,335.466,875.973" /><glyph unicode="&#x0075;" d="M895.974,0C895.974,0,127.998,0,127.998,0C110.655,0,95.647,6.176,83.007,18.495C70.368,30.815,64.032,45.983,64,63.998C64,63.998,64,511.984,64,511.984C64,529.999,70.336,545.167,83.007,557.487C95.679,569.806,110.687,575.982,127.998,575.982C127.998,575.982,191.996,575.982,191.996,575.982C191.996,575.982,191.996,703.978,191.996,703.978C191.996,761.992,206.332,815.495,235.003,864.485C263.674,913.475,302.521,952.322,351.511,980.993C400.501,1009.664,454.004,1024,512.018,1024C570.032,1024,623.535,1009.664,672.525,980.993C721.515,952.322,760.362,913.475,789.033,864.485C817.704,815.495,832.04,761.992,832.04,703.978C832.04,703.978,832.04,575.982,832.04,575.982C832.04,575.982,896.038,575.982,896.038,575.982C914.053,575.982,929.221,569.806,941.541,557.487C953.86,545.167,960.036,529.999,960.036,511.984C960.036,511.984,960.036,63.998,960.036,63.998C960.036,45.983,953.86,30.815,941.541,18.495C929.221,6.176,914.053,0,896.038,0C896.038,0,895.974,0,895.974,0M383.99,63.998C383.99,63.998,639.982,63.998,639.982,63.998C639.982,63.998,558.993,264.984,558.993,264.984C582.992,274.999,602.479,290.647,617.487,311.99C632.494,333.334,639.982,357.333,639.982,383.988C639.982,419.315,627.47,449.49,602.479,474.481C577.488,499.472,547.313,511.984,511.986,511.984C476.659,511.984,446.484,499.472,421.493,474.481C396.502,449.49,383.99,419.315,383.99,383.988C383.99,357.333,391.478,333.334,406.485,311.99C421.493,290.647,440.98,274.999,464.979,264.984C464.979,264.984,383.99,63.998,383.99,63.998M703.98,703.978C703.98,757.32,685.325,802.631,647.982,839.974C610.639,877.317,565.488,895.972,512.498,895.972C459.508,895.972,414.165,877.317,376.502,839.974C338.839,802.631,319.992,757.32,319.992,703.978C319.992,703.978,319.992,575.982,319.992,575.982C319.992,575.982,703.98,575.982,703.98,575.982C703.98,575.982,703.98,703.978,703.98,703.978C703.98,703.978,703.98,703.978,703.98,703.978" /><glyph unicode="&#x0076;" d="M1023.408,32C1023.408,32,878.43,32,878.43,32C878.43,32,839.426,71.004,839.426,71.004C839.426,71.004,922.426,153.012,922.426,153.012C922.426,153.012,1016.433,60.029,1016.433,60.029C1023.76,52.702,1026.096,43.359,1023.44,32.032C1023.44,32.032,1023.408,32,1023.408,32M545.439,159.988C545.439,159.988,833.411,447.959,833.411,447.959C833.411,447.959,901.404,227.981,901.404,227.981C901.404,227.981,765.417,91.994,765.417,91.994C765.417,91.994,545.439,159.988,545.439,159.988M32.497,639.941C11.155,661.923,0.5,688.768,0.5,720.445C0.5,752.122,11.507,778.967,33.489,800.949C33.489,800.949,192.481,959.942,192.481,959.942C214.463,981.283,241.309,992.098,272.985,992.45C304.662,992.802,331.156,981.955,352.466,959.942C352.466,959.942,801.414,511.985,801.414,511.985C801.414,511.985,481.445,192.016,481.445,192.016C481.445,192.016,32.497,639.941,32.497,639.941M558.462,434.457C570.46,446.776,576.476,461.462,576.476,478.452C576.476,495.443,570.46,509.937,558.462,521.936C558.462,521.936,297.495,782.903,297.495,782.903C285.496,794.902,271.002,800.917,254.011,800.917C237.021,800.917,222.526,794.902,210.528,782.903C198.529,770.904,192.513,756.409,192.513,739.419C192.513,722.429,198.529,707.934,210.528,695.935C210.528,695.935,471.494,433.945,471.494,433.945C483.493,421.946,497.987,415.931,514.978,415.931C531.968,415.931,546.463,422.106,558.462,434.425C558.462,434.425,558.462,434.457,558.462,434.457" /><glyph unicode="&#x0077;" d="M927.54,0C927.54,0,616.532,0,616.532,0C616.532,0,624.532,4,624.532,4C631.86,8.672,636.692,15.168,639.028,23.488C641.364,31.808,640.18,39.968,635.54,48C635.54,48,590.548,128,590.548,128C597.876,138.656,604.212,149.664,609.556,160.992C609.556,160.992,703.572,160.992,703.572,160.992C712.916,160.992,720.596,164,726.58,169.984C732.564,175.968,735.572,183.648,735.572,192.992C735.572,192.992,735.572,384,735.572,384C735.572,393.344,732.564,401.024,726.58,407.008C720.596,412.992,712.916,416,703.572,416C703.572,416,609.556,416,609.556,416C604.212,427.328,597.876,438.656,590.548,450.016C590.548,450.016,635.54,529.024,635.54,529.024C640.212,537.024,641.364,545.184,639.028,553.536C636.692,561.888,631.86,568.384,624.532,573.024C624.532,573.024,459.54,669.024,459.54,669.024C452.212,673.024,444.212,673.856,435.54,671.52C426.868,669.184,420.532,664.352,416.532,657.024C416.532,657.024,369.524,575.008,369.524,575.008C368.18,575.008,365.524,575.168,361.524,575.52C357.524,575.872,354.356,576.032,352.02,576.032C349.684,576.032,346.324,575.872,342.004,575.52C337.684,575.168,335.188,575.008,334.516,575.008C334.516,575.008,287.508,657.024,287.508,657.024C283.508,664.352,277.172,669.184,268.5,671.52C259.828,673.856,251.828,673.024,244.5,669.024C244.5,669.024,96.5,582.016,96.5,582.016C96.5,582.016,96.5,959.008,96.5,959.008C96.5,977.024,102.676,992.192,114.996,1004.512C127.316,1016.832,142.484,1023.008,160.5,1023.008C160.5,1023.008,607.508,1023.008,607.508,1023.008C607.508,1023.008,607.508,671.008,607.508,671.008C607.508,662.336,610.676,654.848,617.012,648.512C623.348,642.176,630.836,639.008,639.508,639.008C639.508,639.008,991.508,639.008,991.508,639.008C991.508,639.008,991.508,64,991.508,64C991.508,45.984,985.332,30.816,973.012,18.496C960.692,6.176,945.524,0,927.508,0C927.508,0,927.54,0,927.54,0M671.54,1024C688.884,1024,703.892,1017.984,716.532,1005.984C716.532,1005.984,972.532,748.992,972.532,748.992C985.204,736.32,991.54,720.992,991.54,702.976C991.54,702.976,671.54,702.976,671.54,702.976C671.54,702.976,671.54,1023.968,671.54,1023.968C671.54,1023.968,671.54,1024,671.54,1024M210.548,416C210.548,416,163.54,499.008,163.54,499.008C159.54,506.336,158.516,514.176,160.532,522.496C162.548,530.816,167.22,537.312,174.548,541.984C174.548,541.984,227.54,572.992,227.54,572.992C234.228,576.992,241.716,577.824,250.036,575.488C258.356,573.152,264.532,568.32,268.532,560.992C268.532,560.992,316.532,476.992,316.532,476.992C329.204,479.008,341.044,480,352.02,480C362.996,480,375.188,479.008,388.532,476.992C388.532,476.992,435.54,560.992,435.54,560.992C440.212,568.32,446.548,573.152,454.548,575.488C462.548,577.824,470.228,576.992,477.556,572.992C477.556,572.992,529.556,541.984,529.556,541.984C536.884,537.312,541.556,530.816,543.572,522.496C545.588,514.176,544.564,506.336,540.564,499.008C540.564,499.008,493.556,416,493.556,416C510.9,396.672,523.892,375.68,532.564,352.992C532.564,352.992,639.572,352.992,639.572,352.992C648.916,352.992,656.596,349.824,662.58,343.488C668.564,337.152,671.572,329.664,671.572,320.992C671.572,320.992,671.572,256.992,671.572,256.992C671.572,247.648,668.564,239.968,662.58,233.984C656.596,228,648.916,224.992,639.572,224.992C639.572,224.992,532.564,224.992,532.564,224.992C523.892,201.664,510.9,180.32,493.556,160.992C493.556,160.992,540.564,77.984,540.564,77.984C544.564,70.656,545.588,62.816,543.572,54.496C541.556,46.176,536.884,40,529.556,36C529.556,36,477.556,4,477.556,4C470.228,0,462.548,-0.832,454.548,1.504C446.548,3.84,440.212,8.672,435.54,16C435.54,16,388.532,100,388.532,100C375.188,97.984,363.028,96.992,352.02,96.992C341.012,96.992,329.172,97.984,316.532,100C316.532,100,268.532,16,268.532,16C264.532,8.672,258.516,3.84,250.516,1.504C242.516,-0.832,234.836,0,227.508,4C227.508,4,174.516,36,174.516,36C167.188,40,162.516,46.176,160.5,54.496C158.484,62.816,159.508,70.656,163.508,77.984C163.508,77.984,210.516,160.992,210.516,160.992C193.172,180.32,180.5,201.664,172.5,224.992C172.5,224.992,64.5,224.992,64.5,224.992C55.828,224.992,48.34,228,42.004,233.984C35.668,239.968,32.5,247.648,32.5,256.992C32.5,256.992,32.5,320.992,32.5,320.992C32.5,329.664,35.668,337.152,42.004,343.488C48.34,349.824,55.828,352.992,64.5,352.992C64.5,352.992,172.5,352.992,172.5,352.992C180.5,375.68,193.172,396.672,210.516,416C210.516,416,210.548,416,210.548,416M352.02,224.992C369.684,224.992,384.852,231.168,397.524,243.488C410.196,255.808,416.532,270.816,416.532,288.48C416.532,306.144,410.196,321.312,397.524,333.984C384.852,346.656,369.684,352.992,352.02,352.992C334.356,352.992,319.348,346.656,307.028,333.984C294.708,321.312,288.532,306.144,288.532,288.48C288.532,270.816,294.708,255.808,307.028,243.488C319.348,231.168,334.356,224.992,352.02,224.992C352.02,224.992,352.02,224.992,352.02,224.992" /><glyph unicode="&#x0078;" d="M864,0C864,0,160,0,160,0C124.672,0,94.496,12.512,69.504,37.504C44.512,62.496,32,92.672,32,128C32,128,32,832,32,832C32,867.328,44.512,897.504,69.504,922.496C94.496,947.488,124.672,960,160,960C160,960,160,832,160,832C160,813.984,166.336,798.816,179.008,786.496C191.68,774.176,206.688,768,224,768C224,768,288,768,288,768C306.016,768,321.184,774.176,333.504,786.496C345.824,798.816,352,813.984,352,832C352,832,352,960,352,960C352,960,672,960,672,960C672,960,672,832,672,832C672,813.984,678.336,798.816,691.008,786.496C703.68,774.176,718.688,768,736,768C736,768,800,768,800,768C818.016,768,833.184,774.176,845.504,786.496C857.824,798.816,864,813.984,864,832C864,832,864,960,864,960C899.328,960,929.504,947.488,954.496,922.496C979.488,897.504,992,867.328,992,832C992,832,992,128,992,128C992,92.672,979.488,62.496,954.496,37.504C929.504,12.512,899.328,0,864,0C864,0,864,0,864,0M832,640C832,640,192,640,192,640C183.328,640,175.84,636.832,169.504,630.496C163.168,624.16,160,616.672,160,608C160,599.328,163.168,591.84,169.504,585.504C175.84,579.168,183.328,576,192,576C192,576,832,576,832,576C840.672,576,848.16,579.168,854.496,585.504C860.832,591.84,864,599.328,864,608C864,616.672,860.832,624.16,854.496,630.496C848.16,636.832,840.672,640,832,640C832,640,832,640,832,640M832,448C832,448,192,448,192,448C183.328,448,175.84,444.832,169.504,438.496C163.168,432.16,160,424.672,160,416C160,407.328,163.168,399.84,169.504,393.504C175.84,387.168,183.328,384,192,384C192,384,832,384,832,384C840.672,384,848.16,387.168,854.496,393.504C860.832,399.84,864,407.328,864,416C864,424.672,860.832,432.16,854.496,438.496C848.16,444.832,840.672,448,832,448C832,448,832,448,832,448M832,256C832,256,192,256,192,256C183.328,256,175.84,252.832,169.504,246.496C163.168,240.16,160,232.672,160,224C160,215.328,163.168,207.84,169.504,201.504C175.84,195.168,183.328,192,192,192C192,192,832,192,832,192C840.672,192,848.16,195.168,854.496,201.504C860.832,207.84,864,215.328,864,224C864,232.672,860.832,240.16,854.496,246.496C848.16,252.832,840.672,256,832,256C832,256,832,256,832,256M768,832C759.328,832,751.84,835.168,745.504,841.504C739.168,847.84,736,855.328,736,864C736,864,736,992,736,992C736,1000.672,739.168,1008.16,745.504,1014.496C751.84,1020.832,759.328,1024,768,1024C776.672,1024,784.16,1020.832,790.496,1014.496C796.832,1008.16,800,1000.672,800,992C800,992,800,864,800,864C800,855.328,796.832,847.84,790.496,841.504C784.16,835.168,776.672,832,768,832C768,832,768,832,768,832M256,832C247.328,832,239.84,835.168,233.504,841.504C227.168,847.84,224,855.328,224,864C224,864,224,992,224,992C224,1000.672,227.168,1008.16,233.504,1014.496C239.84,1020.832,247.328,1024,256,1024C264.672,1024,272.16,1020.832,278.496,1014.496C284.832,1008.16,288,1000.672,288,992C288,992,288,864,288,864C288,855.328,284.832,847.84,278.496,841.504C272.16,835.168,264.672,832,256,832C256,832,256,832,256,832" /><glyph unicode="&#x0079;" d="M960,64C960,64,896,64,896,64C896,64,896,320,896,320C896,320,960,320,960,320C978.016,320,993.184,313.824,1005.504,301.504C1017.824,289.184,1024,274.016,1024,256C1024,256,1024,128,1024,128C1024,109.984,1017.824,94.816,1005.504,82.496C993.184,70.176,978.016,64,960,64C960,64,960,64,960,64M960,384C960,384,896,384,896,384C896,384,896,640,896,640C896,640,960,640,960,640C978.016,640,993.184,633.824,1005.504,621.504C1017.824,609.184,1024,594.016,1024,576C1024,576,1024,448,1024,448C1024,429.984,1017.824,414.816,1005.504,402.496C993.184,390.176,978.016,384,960,384C960,384,960,384,960,384M960,704C960,704,896,704,896,704C896,704,896,960,896,960C896,960,960,960,960,960C978.016,960,993.184,953.824,1005.504,941.504C1017.824,929.184,1024,914.016,1024,896C1024,896,1024,768,1024,768C1024,749.984,1017.824,734.816,1005.504,722.496C993.184,710.176,978.016,704,960,704C960,704,960,704,960,704M832,64C832,46.656,825.824,31.648,813.504,19.008C801.184,6.368,786.016,0.032,768,0C768,0,64,0,64,0C46.656,0,31.648,6.336,19.008,19.008C6.368,31.68,0.032,46.688,0,64C0,64,0,960,0,960C0,978.016,6.336,993.184,19.008,1005.504C31.68,1017.824,46.688,1024,64,1024C64,1024,768,1024,768,1024C786.016,1024,801.184,1017.824,813.504,1005.504C825.824,993.184,832,978.016,832,960C832,960,832,64,832,64C832,64,832,64,832,64M480,409.984C480,409.984,480,428,480,428C544,454.016,576,524.672,576,640C576,682.016,561.152,713.824,531.488,735.488C501.824,757.152,463.488,767.968,416.48,768C369.472,768.032,330.976,757.184,300.992,735.488C271.008,713.792,256,681.952,256,640C256,528,288,457.664,352,428.992C352,428.992,352,409.984,352,409.984C306.016,401.984,268,386.976,237.984,364.992C207.968,343.008,192.64,317.984,191.968,289.984C191.968,281.984,199.136,275.488,213.472,270.496C227.808,265.504,248.8,262.016,276.48,260C304.16,257.984,326.976,256.832,344.992,256.512C363.008,256.192,386.656,256.032,416,256C445.344,255.968,468.992,256.16,487.008,256.512C505.024,256.864,527.84,258.048,555.52,260C583.2,261.952,604.192,265.472,618.528,270.496C632.864,275.52,640.032,282.016,640.032,289.984C639.36,317.984,624.032,343.008,594.016,364.992C564,386.976,525.984,401.984,480,409.984C480,409.984,480,409.984,480,409.984" /><glyph unicode="&#x007a;" d="M896,223.508C896,223.508,1024,0.5,1024,0.5C1024,0.5,800,128.5,800,128.5C800,128.5,799.008,134.516,799.008,134.516C799.008,134.516,631.008,301.524,631.008,301.524C631.008,301.524,479.008,150.516,479.008,150.516C451.008,122.516,419.328,125.844,384,160.532C384,160.532,384,339.54,384,339.54C384,339.54,125.984,607.54,125.984,607.54C125.984,607.54,112.992,595.54,112.992,595.54C100.32,582.196,84.832,575.54,66.496,575.54C48.16,575.54,32.512,582.036,19.488,595.028C6.464,608.02,-0.032,623.7,0,642.036C0.032,660.372,6.368,676.212,19.008,689.524C19.008,689.524,335.008,1004.532,335.008,1004.532C348.352,1017.204,364.16,1023.54,382.496,1023.54C400.832,1023.54,416.48,1017.204,429.504,1004.532C442.528,991.86,449.024,976.372,448.992,958.036C448.96,939.7,442.304,923.892,428.992,910.548C428.992,910.548,416,897.556,416,897.556C416,897.556,684.992,639.54,684.992,639.54C684.992,639.54,864,638.548,864,638.548C898.656,603.892,901.664,572.532,872.992,544.532C872.992,544.532,721.984,393.524,721.984,393.524C721.984,393.524,889.984,225.524,889.984,225.524C889.984,225.524,896,223.508,896,223.508" /><glyph unicode="&#x0030;" d="M828,259.008C818.656,245.664,809.312,234.016,800,224C800,224,511.008,0,511.008,0C511.008,0,224,224,224,224C214.656,234.016,205.312,245.664,196,259.008C154.656,300.352,122.336,348.352,99.008,403.008C75.68,457.664,64.032,515.328,64,576C63.968,636.672,75.808,694.688,99.488,750.016C123.168,805.344,155.008,853.024,194.976,893.024C234.944,933.024,282.624,964.864,337.984,988.512C393.344,1012.16,451.36,1024,512,1024C572.64,1024,630.656,1012.16,686.016,988.512C741.376,964.864,789.056,933.024,829.024,893.024C868.992,853.024,900.832,805.344,924.512,750.016C948.192,694.688,960.032,636.672,960,576C959.968,515.328,948.32,457.664,924.992,403.008C901.664,348.352,869.344,300.352,828,259.008C828,259.008,828,259.008,828,259.008M512,896C453.984,896,400.48,881.664,351.488,852.992C302.496,824.32,263.648,785.472,234.976,736.48C206.304,687.488,191.968,633.984,191.968,575.968C191.968,517.952,206.304,464.448,234.976,415.456C263.648,366.464,302.496,327.776,351.488,299.456C400.48,271.136,453.984,256.96,512,256.96C570.016,256.96,623.52,271.136,672.512,299.456C721.504,327.776,760.352,366.464,789.024,415.456C817.696,464.448,832.032,517.952,832.032,575.968C832.032,633.984,817.696,687.488,789.024,736.48C760.352,785.472,721.504,824.32,672.512,852.992C623.52,881.664,570.016,896,512,896C512,896,512,896,512,896" /><glyph unicode="&#x0031;" d="M828,259.008C818.656,245.024,809.312,233.344,800,224C800,224,511.008,0,511.008,0C511.008,0,224,224,224,224C214.656,233.344,205.312,245.024,196,259.008C154.656,300.352,122.336,348.352,99.008,403.008C75.68,457.664,64.032,515.328,64,576C63.968,636.672,75.808,694.688,99.488,750.016C123.168,805.344,155.008,853.024,194.976,893.024C234.944,933.024,282.624,964.864,337.984,988.512C393.344,1012.16,451.36,1024,512,1024C572.64,1024,630.656,1012.16,686.016,988.512C741.376,964.864,789.056,933.024,829.024,893.024C868.992,853.024,900.832,805.344,924.512,750.016C948.192,694.688,960.032,636.672,960,576C959.968,515.328,948.32,457.664,924.992,403.008C901.664,348.352,869.344,300.352,828,259.008C828,259.008,828,259.008,828,259.008M512,896C453.984,896,400.48,881.664,351.488,852.992C302.496,824.32,263.808,785.472,235.488,736.48C207.168,687.488,192.992,633.984,192.992,575.968C192.992,517.952,207.168,464.448,235.488,415.456C263.808,366.464,302.496,327.776,351.488,299.456C400.48,271.136,453.984,256.96,512,256.96C570.016,256.96,623.52,271.136,672.512,299.456C721.504,327.776,760.352,366.464,789.024,415.456C817.696,464.448,832.032,517.952,832.032,575.968C832.032,633.984,817.696,687.488,789.024,736.48C760.352,785.472,721.504,824.32,672.512,852.992C623.52,881.664,570.016,896,512,896C512,896,512,896,512,896M704,512C704,512,576,512,576,512C576,512,576,384,576,384C576,366.656,569.664,351.648,556.992,339.008C544.32,326.368,529.152,320.032,511.488,320C493.824,319.968,478.816,326.304,466.496,339.008C454.176,351.712,448,366.688,448,384C448,384,448,512,448,512C448,512,320,512,320,512C301.984,512,286.816,518.336,274.496,531.008C262.176,543.68,256,558.848,256,576.512C256,594.176,262.176,609.184,274.496,621.504C286.816,633.824,301.984,640,320,640C320,640,448,640,448,640C448,640,448,768,448,768C448,786.016,454.176,801.184,466.496,813.504C478.816,825.824,493.824,832,511.488,832C529.152,832,544.32,825.824,556.992,813.504C569.664,801.184,576,786.016,576,768C576,768,576,640,576,640C576,640,704,640,704,640C721.344,640,736.352,633.824,748.992,621.504C761.632,609.184,767.968,594.176,768,576.512C768.032,558.848,761.696,543.68,748.992,531.008C736.288,518.336,721.312,512,704,512C704,512,704,512,704,512" /><glyph unicode="&#x0032;" d="M828,259.008C818.656,245.664,809.312,234.016,800,224C800,224,511.008,0,511.008,0C511.008,0,224,224,224,224C214.656,234.016,205.312,245.664,196,259.008C154.656,300.352,122.336,348.352,99.008,403.008C75.68,457.664,64.032,515.328,64,576C63.968,636.672,75.808,694.688,99.488,750.016C123.168,805.344,155.008,853.024,194.976,893.024C234.944,933.024,282.624,964.864,337.984,988.512C393.344,1012.16,451.36,1024,512,1024C572.64,1024,630.656,1012.16,686.016,988.512C741.376,964.864,789.056,933.024,829.024,893.024C868.992,853.024,900.832,805.344,924.512,750.016C948.192,694.688,960.032,636.672,960,576C959.968,515.328,948.32,457.664,924.992,403.008C901.664,348.352,869.344,300.352,828,259.008C828,259.008,828,259.008,828,259.008M512,896C453.984,896,400.48,881.664,351.488,852.992C302.496,824.32,263.648,785.472,234.976,736.48C206.304,687.488,191.968,633.984,191.968,575.968C191.968,517.952,206.304,464.448,234.976,415.456C263.648,366.464,302.496,327.776,351.488,299.456C400.48,271.136,453.984,256.96,512,256.96C570.016,256.96,623.52,271.136,672.512,299.456C721.504,327.776,760.352,366.464,789.024,415.456C817.696,464.448,832.032,517.952,832.032,575.968C832.032,633.984,817.696,687.488,789.024,736.48C760.352,785.472,721.504,824.32,672.512,852.992C623.52,881.664,570.016,896,512,896C512,896,512,896,512,896M704,512C704,512,320,512,320,512C301.984,512,286.816,518.336,274.496,531.008C262.176,543.68,256,558.848,256,576.512C256,594.176,262.176,609.184,274.496,621.504C286.816,633.824,301.984,640,320,640C320,640,704,640,704,640C721.344,640,736.352,633.824,748.992,621.504C761.632,609.184,767.968,594.176,768,576.512C768.032,558.848,761.696,543.68,748.992,531.008C736.288,518.336,721.312,512,704,512C704,512,704,512,704,512" /><glyph unicode="&#x0033;" d="M959.571,0C959.571,0,256.252,0,256.252,0C238.254,0,223.1,6.17,210.792,18.478C198.484,30.786,192.314,45.939,192.314,63.938C192.314,63.938,192.314,64.929,192.314,64.929C192.314,64.929,543.974,64.929,543.974,64.929C570.604,64.929,593.27,74.264,611.908,92.902C630.546,111.54,639.881,134.206,639.881,160.836C639.881,160.836,639.881,480.526,639.881,480.526C639.881,506.517,630.546,528.992,611.908,547.949C593.27,566.907,570.604,576.402,543.974,576.434C543.974,576.434,192.314,576.434,192.314,576.434C192.314,576.434,192.314,959.071,192.314,959.071C192.314,976.398,198.484,991.392,210.792,1004.019C223.1,1016.647,238.254,1022.977,256.252,1023.009C256.252,1023.009,639.881,1023.009,639.881,1023.009C639.881,1023.009,639.881,671.35,639.881,671.35C639.881,662.686,643.046,655.205,649.375,648.875C655.705,642.546,663.186,639.381,671.85,639.381C671.85,639.381,1022.518,639.381,1022.518,639.381C1022.518,639.381,1023.509,638.39,1023.509,638.39C1023.509,638.39,1023.509,63.938,1023.509,63.938C1023.509,45.939,1017.339,30.786,1005.031,18.478C992.723,6.17,977.569,0,959.571,0C959.571,0,959.571,0,959.571,0M703.819,1024C721.146,1024,735.788,1017.67,747.776,1005.01C747.776,1005.01,1004.519,748.267,1004.519,748.267C1017.179,736.279,1023.189,721.285,1022.518,703.319C1022.518,703.319,703.819,703.319,703.819,703.319C703.819,703.319,703.819,1024,703.819,1024C703.819,1024,703.819,1024,703.819,1024M448.066,448.557C448.066,448.557,448.066,192.805,448.066,192.805C448.066,174.807,441.737,159.653,429.077,147.345C416.417,135.037,401.424,128.867,384.128,128.867C384.128,128.867,64.438,128.867,64.438,128.867C46.439,128.867,31.286,135.037,18.978,147.345C6.67,159.653,0.5,174.807,0.5,192.805C0.5,192.805,0.5,448.557,0.5,448.557C0.5,465.885,6.67,480.878,18.978,493.506C31.286,506.134,46.439,512.464,64.438,512.496C64.438,512.496,384.128,512.496,384.128,512.496C402.127,512.496,417.28,506.166,429.588,493.506C441.896,480.846,448.066,465.853,448.066,448.557C448.066,448.557,448.066,448.557,448.066,448.557M379.141,331.679C379.141,331.679,214.309,444.561,214.309,444.561C210.313,447.886,205.645,448.877,200.306,447.566C194.968,446.256,192.314,443.922,192.314,440.565C192.314,440.565,192.314,384.619,192.314,384.619C192.314,384.619,96.407,384.619,96.407,384.619C87.743,384.619,80.263,381.454,73.933,375.125C67.603,368.795,64.438,361.314,64.438,352.65C64.438,352.65,64.438,288.712,64.438,288.712C64.438,279.377,67.603,271.705,73.933,265.727C80.263,259.748,87.743,256.743,96.407,256.743C96.407,256.743,192.314,256.743,192.314,256.743C192.314,256.743,192.314,199.806,192.314,199.806C192.314,196.482,194.968,194.308,200.306,193.317C205.645,192.326,210.313,193.157,214.309,195.81C214.309,195.81,379.141,308.693,379.141,308.693C382.466,312.018,384.128,315.854,384.128,320.17C384.128,324.486,382.466,328.322,379.141,331.647C379.141,331.647,379.141,331.679,379.141,331.679" /></font>
</defs>
</svg>
