<?xml version="1.0" encoding="utf-8"?>
<!-- Generator: Adobe Illustrator 15.1.0, SVG Export Plug-In . SVG Version: 6.00 Build 0)  -->
<!DOCTYPE svg PUBLIC "-//W3C//DTD SVG 1.1//EN" "http://www.w3.org/Graphics/SVG/1.1/DTD/svg11.dtd">
<svg version="1.1" id="Layer_1" xmlns="http://www.w3.org/2000/svg" xmlns:xlink="http://www.w3.org/1999/xlink" x="0px" y="0px"
	 width="198.743px" height="49.947px" viewBox="0 0 198.743 49.947" enable-background="new 0 0 198.743 49.947"
	 xml:space="preserve">
<g>
	<g>
		<path fill="#3B3D3F" d="M69.662,10.165c-0.249-0.248-0.701-0.585-1.357-1.011c-0.657-0.426-1.455-0.842-2.395-1.251
			c-0.941-0.407-1.961-0.753-3.061-1.038c-1.1-0.284-2.218-0.425-3.353-0.425c-2.022,0-3.531,0.372-4.524,1.117
			s-1.49,1.792-1.49,3.14c0,0.781,0.187,1.428,0.558,1.942c0.373,0.515,0.914,0.967,1.624,1.357
			c0.709,0.391,1.605,0.746,2.688,1.065c1.082,0.319,2.333,0.657,3.752,1.011c1.844,0.498,3.521,1.029,5.029,1.597
			c1.508,0.568,2.785,1.277,3.832,2.129c1.046,0.852,1.854,1.872,2.421,3.06c0.567,1.189,0.852,2.653,0.852,4.39
			c0,2.023-0.382,3.753-1.145,5.189c-0.764,1.438-1.783,2.6-3.06,3.486s-2.768,1.535-4.471,1.942
			c-1.703,0.407-3.477,0.612-5.322,0.612c-2.838,0-5.641-0.426-8.409-1.277c-2.767-0.852-5.251-2.058-7.45-3.619l3.246-6.334
			c0.319,0.32,0.896,0.738,1.73,1.252c0.833,0.514,1.817,1.029,2.953,1.543c1.135,0.515,2.395,0.949,3.779,1.305
			c1.384,0.354,2.803,0.531,4.258,0.531c4.045,0,6.067-1.295,6.067-3.885c0-0.852-0.231-1.561-0.692-2.129
			c-0.461-0.567-1.118-1.064-1.969-1.49c-0.852-0.425-1.881-0.815-3.087-1.17c-1.207-0.354-2.555-0.727-4.045-1.118
			c-1.81-0.497-3.379-1.038-4.71-1.623c-1.331-0.586-2.439-1.269-3.326-2.049c-0.888-0.78-1.552-1.703-1.996-2.768
			c-0.444-1.064-0.666-2.323-0.666-3.778c0-1.916,0.355-3.619,1.064-5.109c0.709-1.49,1.694-2.732,2.954-3.725
			c1.259-0.993,2.723-1.747,4.39-2.262C56.002,0.258,57.794,0,59.71,0c2.661,0,5.109,0.417,7.344,1.251
			c2.235,0.834,4.186,1.818,5.854,2.954L69.662,10.165z"/>
		<path fill="#3B3D3F" d="M75.904,38.052V0.266h16.019c1.738,0,3.344,0.364,4.816,1.091c1.472,0.728,2.741,1.686,3.805,2.873
			c1.064,1.189,1.897,2.538,2.501,4.045c0.603,1.509,0.905,3.025,0.905,4.551c0,1.597-0.285,3.149-0.852,4.657
			c-0.568,1.508-1.366,2.847-2.395,4.018c-1.029,1.171-2.271,2.112-3.725,2.821c-1.456,0.71-3.052,1.064-4.79,1.064h-8.94v12.667
			H75.904z M83.249,18.946h8.514c1.348,0,2.475-0.55,3.38-1.65c0.904-1.099,1.357-2.589,1.357-4.47c0-0.958-0.142-1.818-0.426-2.582
			c-0.284-0.763-0.657-1.41-1.118-1.942c-0.461-0.532-1.002-0.931-1.623-1.197c-0.621-0.266-1.25-0.399-1.889-0.399h-8.195V18.946z"
			/>
		<path fill="#3B3D3F" d="M97.644,38.052l14.902-37.786h5.961l14.849,37.786h-7.771c0,0-0.846-6.623-4.498-10.244
			c-3.535-3.506-10.988-4.338-10.988-4.338l-4.684,14.583H97.644z M115.525,8.196l-5.428,15.273h10.697L115.525,8.196z"/>
		<path fill="#3B3D3F" d="M134.316,38.052V0.266h16.711c1.738,0,3.345,0.364,4.816,1.091c1.473,0.728,2.741,1.686,3.805,2.873
			c1.065,1.189,1.898,2.538,2.502,4.045c0.604,1.509,0.904,3.025,0.904,4.551c0,2.448-0.611,4.675-1.836,6.679
			c-1.224,2.005-2.883,3.451-4.975,4.337l8.887,14.21h-8.303l-7.93-12.667h-7.237v12.667H134.316z M141.661,18.946h9.207
			c0.674,0,1.304-0.16,1.89-0.479c0.586-0.319,1.091-0.753,1.517-1.304c0.425-0.55,0.763-1.198,1.011-1.943s0.373-1.543,0.373-2.395
			c0-0.886-0.143-1.703-0.426-2.448c-0.285-0.745-0.666-1.392-1.145-1.943c-0.479-0.55-1.029-0.975-1.65-1.277
			c-0.62-0.301-1.25-0.453-1.889-0.453h-8.888V18.946z"/>
		<path fill="#3B3D3F" d="M165.984,38.052V0.319h7.344v18.415l16.339-18.468h7.61L182.802,17.03l15.38,21.022h-7.77l-12.027-16.871
			l-5.057,5.482v11.389H165.984z"/>
	</g>
	<path fill="#71CC8D" d="M37.63,19.358c0.003,2.108-0.348,4.227-1.056,6.247c-0.71,2.019-1.763,3.951-3.151,5.686
		c-1.394,1.729-3.117,3.271-5.14,4.469c-1.012,0.596-2.088,1.128-3.23,1.534c-1.139,0.411-2.337,0.71-3.565,0.892
		c-2.454,0.359-5.078,0.253-7.62-0.438c-1.265-0.354-2.521-0.82-3.703-1.453c-1.184-0.626-2.33-1.364-3.364-2.252
		c-2.096-1.744-3.832-3.986-5.008-6.526C0.609,24.98-0.004,22.154,0,19.356c-0.002-2.798,0.621-5.623,1.808-8.154
		c0.292-0.635,0.625-1.25,0.987-1.843c0.359-0.595,0.752-1.167,1.176-1.713c0.211-0.274,0.428-0.542,0.651-0.804
		c0.226-0.259,0.461-0.511,0.7-0.758C5.8,5.593,6.3,5.127,6.82,4.688c2.085-1.751,4.527-3.005,7.06-3.695
		c1.266-0.349,2.561-0.538,3.837-0.611c0.639-0.034,1.275-0.036,1.905-0.007c0.315,0.014,0.628,0.036,0.939,0.066l0.465,0.051
		l0.48,0.062l0.194,0.035l0.244,0.038c0.156,0.026,0.305,0.054,0.457,0.084c0.303,0.059,0.603,0.126,0.9,0.201
		c0.594,0.148,1.178,0.325,1.748,0.529c1.14,0.404,2.215,0.938,3.227,1.527c1.015,0.589,1.941,1.293,2.806,2.029
		c0.865,0.743,1.628,1.577,2.335,2.429c1.389,1.734,2.446,3.662,3.156,5.681c0.709,2.021,1.061,4.136,1.058,6.249V19.358z
		 M37,19.356c-0.006-2.032-0.412-4.06-1.198-5.929c-0.783-1.871-1.94-3.583-3.377-5.008c-1.438-1.427-3.167-2.552-5.037-3.308
		C25.516,4.354,23.502,3.978,21.484,4c-2.006,0.018-4.012,0.432-5.853,1.219c-1.844,0.783-3.521,1.939-4.924,3.358
		c-1.407,1.416-2.532,3.109-3.288,4.953c-0.757,1.843-1.141,3.835-1.132,5.827c-0.006,1.991,0.375,3.983,1.133,5.826
		c0.755,1.843,1.881,3.536,3.287,4.952c1.405,1.418,3.08,2.575,4.924,3.357c1.842,0.787,3.843,1.201,5.855,1.219
		c2.011,0.021,4.029-0.354,5.9-1.11c1.87-0.756,3.598-1.881,5.037-3.308c1.438-1.426,2.595-3.137,3.378-5.008
		c0.786-1.871,1.192-3.895,1.198-5.931V19.356z"/>
	<path fill="#71CC8D" d="M6.963,17.525c-0.003-1.45,0.239-2.906,0.726-4.295c0.488-1.388,1.211-2.716,2.167-3.909
		c0.958-1.188,2.142-2.249,3.533-3.073c0.695-0.409,1.436-0.775,2.221-1.054c0.784-0.283,1.607-0.489,2.451-0.614
		c1.687-0.247,3.492-0.174,5.239,0.301c0.87,0.243,1.733,0.564,2.545,1c0.815,0.43,1.603,0.938,2.313,1.548
		c1.44,1.199,2.634,2.741,3.443,4.487c0.814,1.743,1.235,3.686,1.232,5.61c0.001,1.924-0.427,3.866-1.243,5.605
		c-0.201,0.437-0.429,0.859-0.678,1.267c-0.247,0.409-0.518,0.803-0.809,1.178c-0.145,0.188-0.294,0.373-0.448,0.552
		c-0.155,0.179-0.317,0.353-0.48,0.521c-0.329,0.339-0.672,0.66-1.03,0.961c-1.434,1.204-3.113,2.066-4.854,2.541
		c-0.871,0.24-1.761,0.37-2.638,0.42c-0.44,0.023-0.877,0.025-1.31,0.005c-0.216-0.01-0.432-0.025-0.646-0.046l-0.32-0.035
		l-0.331-0.042l-0.133-0.024l-0.167-0.026c-0.107-0.019-0.21-0.037-0.314-0.058c-0.208-0.041-0.415-0.088-0.619-0.138
		c-0.409-0.103-0.81-0.224-1.202-0.364c-0.784-0.277-1.522-0.645-2.218-1.051c-0.698-0.404-1.334-0.889-1.929-1.395
		c-0.594-0.511-1.119-1.084-1.605-1.67c-0.955-1.192-1.681-2.518-2.169-3.905c-0.488-1.389-0.73-2.844-0.728-4.296V17.525z
		 M7.395,17.527c0.005,1.397,0.284,2.791,0.824,4.077c0.538,1.286,1.333,2.462,2.322,3.443c0.988,0.981,2.177,1.755,3.463,2.274
		c1.287,0.521,2.671,0.778,4.058,0.765c1.379-0.013,2.758-0.298,4.024-0.839c1.268-0.538,2.42-1.333,3.385-2.309
		c0.967-0.974,1.741-2.138,2.26-3.405c0.521-1.267,0.785-2.637,0.778-4.006c0.004-1.369-0.258-2.738-0.779-4.006
		c-0.519-1.267-1.293-2.431-2.26-3.405c-0.966-0.974-2.117-1.77-3.386-2.308c-1.266-0.542-2.643-0.826-4.025-0.838
		c-1.382-0.015-2.77,0.244-4.056,0.764c-1.286,0.52-2.474,1.293-3.463,2.274c-0.989,0.98-1.784,2.157-2.322,3.442
		c-0.54,1.287-0.819,2.679-0.824,4.078V17.527z"/>
	<g>
		<path fill="#C3CCD5" d="M133.454,47.777c-0.407,0-0.772-0.095-1.095-0.285c-0.324-0.189-0.579-0.444-0.766-0.765v0.95h-0.97v-7.3
			h1.101v3.06c0.206-0.333,0.465-0.596,0.774-0.789s0.675-0.291,1.095-0.291c0.347,0,0.664,0.075,0.95,0.225
			c0.286,0.15,0.532,0.351,0.735,0.601s0.359,0.54,0.47,0.87s0.165,0.675,0.165,1.035c0,0.373-0.063,0.723-0.189,1.05
			c-0.127,0.327-0.301,0.612-0.521,0.854c-0.22,0.244-0.479,0.436-0.78,0.576C134.124,47.707,133.801,47.777,133.454,47.777z
			 M133.164,46.837c0.24,0,0.46-0.049,0.66-0.145c0.199-0.098,0.371-0.226,0.515-0.386c0.144-0.159,0.255-0.345,0.335-0.555
			s0.12-0.432,0.12-0.665s-0.038-0.459-0.115-0.676c-0.077-0.216-0.183-0.406-0.319-0.569s-0.301-0.295-0.49-0.396
			c-0.19-0.1-0.398-0.149-0.625-0.149c-0.174,0-0.336,0.03-0.485,0.09s-0.29,0.142-0.42,0.245s-0.247,0.223-0.351,0.359
			s-0.191,0.282-0.264,0.436v1.38c0.039,0.153,0.109,0.292,0.209,0.415s0.219,0.232,0.355,0.325s0.281,0.165,0.436,0.215
			C132.877,46.812,133.023,46.837,133.164,46.837z"/>
		<path fill="#C3CCD5" d="M136.884,48.917c0.093,0.02,0.181,0.033,0.261,0.039c0.08,0.008,0.152,0.011,0.219,0.011
			c0.088,0,0.164-0.011,0.23-0.03s0.132-0.071,0.195-0.154c0.062-0.084,0.133-0.213,0.21-0.385c0.077-0.174,0.169-0.414,0.274-0.721
			l-2.14-5.23h1.13l1.62,4.26l1.44-4.26h1.039l-2.389,6.44c-0.135,0.36-0.334,0.626-0.601,0.8s-0.577,0.26-0.931,0.26
			c-0.193,0-0.379-0.026-0.56-0.08V48.917z"/>
		<path fill="#C3CCD5" d="M144.523,47.677v-7.1h2.98c0.32,0,0.615,0.066,0.885,0.199c0.27,0.134,0.502,0.309,0.695,0.525
			s0.345,0.463,0.455,0.74c0.109,0.276,0.164,0.559,0.164,0.845c0,0.3-0.051,0.589-0.154,0.865s-0.248,0.523-0.436,0.739
			c-0.187,0.217-0.411,0.391-0.675,0.521c-0.263,0.13-0.555,0.194-0.875,0.194h-1.92v2.471H144.523z M145.644,44.217h1.851
			c0.16,0,0.305-0.033,0.435-0.101c0.13-0.066,0.241-0.16,0.335-0.279c0.094-0.12,0.166-0.26,0.22-0.42s0.08-0.337,0.08-0.53
			c0-0.2-0.03-0.38-0.09-0.54s-0.144-0.299-0.25-0.415s-0.229-0.206-0.365-0.271c-0.137-0.062-0.278-0.094-0.425-0.094h-1.79V44.217
			z"/>
		<path fill="#C3CCD5" d="M153.514,43.398c-0.427,0.013-0.804,0.111-1.13,0.295c-0.327,0.183-0.563,0.444-0.71,0.784v3.2h-1.1v-5.23
			h1.02v1.17c0.187-0.359,0.425-0.652,0.715-0.879s0.598-0.34,0.925-0.34c0.067,0,0.122,0,0.165,0s0.082,0.003,0.115,0.01V43.398z"
			/>
		<path fill="#C3CCD5" d="M154.314,41.587v-1.21h1.1v1.21H154.314z M154.314,47.677v-5.23h1.1v5.23H154.314z"/>
		<path fill="#C3CCD5" d="M164.713,47.677h-1.1v-2.93c0-0.486-0.082-0.844-0.244-1.07c-0.164-0.227-0.396-0.34-0.695-0.34
			c-0.314,0-0.601,0.115-0.86,0.345s-0.446,0.528-0.56,0.896v3.1h-1.101v-2.93c0-0.494-0.078-0.852-0.235-1.075
			c-0.156-0.224-0.388-0.335-0.694-0.335s-0.592,0.113-0.854,0.34c-0.264,0.227-0.452,0.523-0.565,0.891v3.109h-1.101v-5.23h1v1.051
			c0.207-0.367,0.479-0.648,0.815-0.846c0.337-0.196,0.722-0.295,1.155-0.295c0.439,0,0.783,0.113,1.029,0.34
			c0.247,0.227,0.404,0.51,0.471,0.851c0.22-0.387,0.496-0.682,0.83-0.886c0.333-0.203,0.709-0.305,1.129-0.305
			c0.307,0,0.562,0.059,0.766,0.176c0.203,0.116,0.365,0.271,0.484,0.465c0.121,0.193,0.205,0.418,0.256,0.675
			c0.05,0.257,0.074,0.528,0.074,0.815V47.677z"/>
		<path fill="#C3CCD5" d="M168.334,47.777c-0.407,0-0.777-0.071-1.11-0.215c-0.333-0.143-0.618-0.338-0.854-0.585
			c-0.237-0.247-0.42-0.533-0.551-0.86c-0.13-0.326-0.195-0.673-0.195-1.039c0-0.367,0.065-0.715,0.195-1.045
			c0.131-0.33,0.313-0.621,0.551-0.871c0.236-0.25,0.521-0.445,0.854-0.59c0.333-0.143,0.706-0.215,1.12-0.215
			c0.406,0,0.775,0.074,1.105,0.221s0.611,0.342,0.845,0.584c0.233,0.244,0.411,0.527,0.534,0.851
			c0.124,0.323,0.186,0.661,0.186,1.015c0,0.08-0.004,0.155-0.01,0.226c-0.007,0.069-0.014,0.128-0.02,0.175h-4.19
			c0.02,0.233,0.075,0.443,0.165,0.63s0.206,0.349,0.35,0.485s0.307,0.242,0.49,0.314c0.184,0.074,0.375,0.11,0.574,0.11
			c0.147,0,0.292-0.019,0.436-0.056c0.144-0.036,0.275-0.09,0.395-0.159c0.121-0.07,0.227-0.155,0.32-0.255s0.167-0.211,0.221-0.33
			l0.939,0.27c-0.18,0.394-0.479,0.715-0.895,0.965C169.372,47.652,168.887,47.777,168.334,47.777z M169.924,44.667
			c-0.02-0.221-0.075-0.424-0.165-0.61s-0.205-0.345-0.345-0.476c-0.141-0.129-0.304-0.23-0.49-0.305
			c-0.188-0.072-0.384-0.109-0.59-0.109c-0.207,0-0.402,0.037-0.586,0.109c-0.183,0.074-0.344,0.176-0.484,0.305
			c-0.141,0.131-0.254,0.289-0.34,0.476c-0.087,0.187-0.141,0.39-0.16,0.61H169.924z"/>
		<path fill="#C3CCD5" d="M172.053,47.677v-7.1h4.73v0.99h-3.609v2.119h3.02v0.93h-3.02v3.061H172.053z"/>
		<path fill="#C3CCD5" d="M178.583,47.777c-0.253,0-0.488-0.041-0.704-0.125c-0.217-0.083-0.404-0.197-0.561-0.345
			c-0.156-0.146-0.28-0.319-0.37-0.521c-0.09-0.199-0.136-0.416-0.136-0.649c0-0.247,0.055-0.47,0.16-0.67
			c0.107-0.2,0.259-0.374,0.455-0.521c0.197-0.146,0.431-0.26,0.701-0.34c0.27-0.08,0.567-0.119,0.895-0.119
			c0.246,0,0.49,0.021,0.73,0.064c0.239,0.043,0.456,0.102,0.649,0.175v-0.36c0-0.387-0.11-0.688-0.33-0.904
			s-0.536-0.325-0.95-0.325c-0.279,0-0.555,0.052-0.824,0.155c-0.271,0.104-0.549,0.252-0.836,0.445l-0.34-0.701
			c0.674-0.453,1.373-0.68,2.1-0.68c0.721,0,1.281,0.184,1.681,0.551c0.399,0.366,0.601,0.893,0.601,1.58v1.89
			c0,0.126,0.022,0.216,0.069,0.271c0.046,0.053,0.126,0.082,0.239,0.09v0.939c-0.105,0.02-0.204,0.033-0.295,0.04
			c-0.09,0.007-0.171,0.01-0.244,0.01c-0.214-0.013-0.375-0.069-0.485-0.17s-0.179-0.233-0.205-0.399l-0.03-0.33
			c-0.232,0.307-0.521,0.541-0.865,0.705C179.345,47.695,178.977,47.777,178.583,47.777z M178.883,46.967
			c0.268,0,0.519-0.048,0.756-0.146c0.236-0.096,0.421-0.23,0.555-0.404c0.14-0.12,0.21-0.246,0.21-0.381v-0.689
			c-0.187-0.073-0.386-0.13-0.595-0.17c-0.211-0.04-0.416-0.061-0.615-0.061c-0.394,0-0.715,0.086-0.965,0.256
			s-0.375,0.395-0.375,0.675c0,0.26,0.096,0.479,0.289,0.655C178.336,46.878,178.583,46.967,178.883,46.967z"/>
		<path fill="#C3CCD5" d="M182.523,45.057c0-0.366,0.062-0.714,0.189-1.04s0.309-0.613,0.545-0.859
			c0.236-0.247,0.521-0.441,0.855-0.586c0.333-0.143,0.707-0.215,1.119-0.215c0.541,0,1.006,0.119,1.396,0.355
			s0.682,0.552,0.875,0.945l-1.069,0.34c-0.127-0.221-0.297-0.393-0.51-0.516c-0.215-0.123-0.451-0.185-0.711-0.185
			c-0.22,0-0.425,0.044-0.615,0.13c-0.189,0.087-0.354,0.209-0.494,0.365c-0.141,0.156-0.25,0.342-0.33,0.555s-0.12,0.45-0.12,0.71
			c0,0.253,0.042,0.489,0.125,0.705c0.083,0.217,0.196,0.405,0.34,0.565s0.31,0.285,0.5,0.375s0.392,0.135,0.604,0.135
			c0.134,0,0.268-0.019,0.4-0.055c0.133-0.037,0.255-0.089,0.365-0.155c0.109-0.067,0.207-0.144,0.29-0.229
			c0.083-0.088,0.146-0.181,0.185-0.281l1.08,0.32c-0.174,0.394-0.463,0.715-0.869,0.965c-0.407,0.25-0.887,0.375-1.441,0.375
			c-0.406,0-0.775-0.073-1.109-0.22s-0.618-0.345-0.855-0.595c-0.236-0.25-0.42-0.539-0.549-0.865
			C182.588,45.771,182.523,45.423,182.523,45.057z"/>
		<path fill="#C3CCD5" d="M190.822,47.777c-0.406,0-0.775-0.071-1.109-0.215c-0.334-0.143-0.618-0.338-0.855-0.585
			c-0.236-0.247-0.42-0.533-0.549-0.86c-0.131-0.326-0.195-0.673-0.195-1.039c0-0.367,0.064-0.715,0.195-1.045
			c0.129-0.33,0.312-0.621,0.549-0.871c0.237-0.25,0.521-0.445,0.855-0.59c0.334-0.143,0.707-0.215,1.12-0.215
			c0.407,0,0.774,0.074,1.104,0.221s0.611,0.342,0.846,0.584c0.232,0.244,0.411,0.527,0.535,0.851
			c0.123,0.323,0.185,0.661,0.185,1.015c0,0.08-0.003,0.155-0.01,0.226c-0.007,0.069-0.014,0.128-0.021,0.175h-4.189
			c0.02,0.233,0.074,0.443,0.164,0.63c0.091,0.187,0.207,0.349,0.351,0.485s0.307,0.242,0.49,0.314
			c0.183,0.074,0.375,0.11,0.575,0.11c0.146,0,0.291-0.019,0.435-0.056c0.144-0.036,0.274-0.09,0.396-0.159
			c0.119-0.07,0.227-0.155,0.32-0.255c0.093-0.1,0.166-0.211,0.219-0.33l0.94,0.27c-0.18,0.394-0.479,0.715-0.896,0.965
			C191.861,47.652,191.377,47.777,190.822,47.777z M192.413,44.667c-0.021-0.221-0.075-0.424-0.165-0.61s-0.205-0.345-0.346-0.476
			c-0.139-0.129-0.303-0.23-0.489-0.305c-0.187-0.072-0.384-0.109-0.591-0.109c-0.206,0-0.4,0.037-0.584,0.109
			c-0.184,0.074-0.346,0.176-0.485,0.305c-0.14,0.131-0.253,0.289-0.34,0.476s-0.14,0.39-0.16,0.61H192.413z"/>
		<path fill="#C3CCD5" d="M196.344,47.777c-0.214,0-0.43-0.016-0.646-0.05c-0.217-0.033-0.431-0.081-0.64-0.146
			c-0.211-0.062-0.41-0.139-0.601-0.229c-0.19-0.09-0.358-0.191-0.505-0.305l0.46-0.74c0.64,0.446,1.276,0.67,1.91,0.67
			c0.333,0,0.597-0.063,0.79-0.19c0.193-0.126,0.29-0.307,0.29-0.539c0-0.221-0.108-0.382-0.325-0.485
			c-0.217-0.103-0.562-0.212-1.035-0.325c-0.326-0.08-0.606-0.161-0.84-0.244c-0.233-0.084-0.424-0.178-0.57-0.281
			c-0.146-0.103-0.253-0.227-0.32-0.369c-0.066-0.144-0.1-0.315-0.1-0.516c0-0.266,0.054-0.503,0.16-0.709
			c0.106-0.207,0.252-0.383,0.436-0.525c0.183-0.144,0.399-0.252,0.649-0.325s0.519-0.11,0.806-0.11c0.379,0,0.746,0.061,1.1,0.18
			c0.354,0.121,0.67,0.284,0.949,0.49l-0.469,0.67c-0.5-0.373-1.034-0.56-1.601-0.56c-0.28,0-0.517,0.059-0.71,0.175
			c-0.193,0.117-0.29,0.302-0.29,0.555c0,0.107,0.021,0.197,0.06,0.271c0.041,0.073,0.105,0.137,0.195,0.19
			c0.09,0.053,0.209,0.102,0.355,0.145s0.326,0.092,0.539,0.145c0.36,0.088,0.67,0.174,0.931,0.261
			c0.26,0.087,0.476,0.188,0.646,0.305s0.295,0.253,0.375,0.41s0.119,0.345,0.119,0.565c0,0.246-0.05,0.47-0.15,0.67
			c-0.1,0.199-0.241,0.369-0.424,0.51c-0.184,0.14-0.407,0.248-0.67,0.324C196.955,47.739,196.663,47.777,196.344,47.777z"/>
	</g>
</g>
</svg>
